<svg width="64" height="64" viewBox="0 0 64 64" fill="none" xmlns="http://www.w3.org/2000/svg">
  <g clip-path="url(#clip0_2154_10136)">
    <rect x="16" y="60" width="4" height="4" fill="#457F2C"/>
    <rect x="56" y="60" width="4" height="4" fill="#457F2C"/>
    <rect x="20" y="56" width="4" height="4" fill="#457F2C"/>
    <rect x="52" y="56" width="4" height="4" fill="#457F2C"/>
    <rect x="20" y="52" width="4" height="4" fill="#457F2C"/>
    <rect x="52" y="52" width="4" height="4" fill="#457F2C"/>
    <rect x="24" y="48" width="4" height="4" fill="#457F2C"/>
    <rect x="24" y="44" width="4" height="4" fill="#457F2C"/>
    <rect x="12" y="40" width="4" height="4" fill="#457F2C"/>
    <rect x="28" y="4" width="4" height="4" fill="#457F2C"/>
    <rect x="28" y="8" width="4" height="4" fill="#9ED455"/>
    <rect x="52" y="8" width="4" height="4" fill="#9ED455"/>
    <rect x="52" y="16" width="4" height="4" fill="#57A756"/>
    <rect x="28" y="16" width="4" height="4" fill="#9ED455"/>
    <rect x="52" y="12" width="4" height="4" fill="#57A756"/>
    <rect x="28" y="12" width="4" height="4" fill="#9ED455"/>
    <rect x="52" y="20" width="4" height="4" fill="#57A756"/>
    <rect x="52" y="24" width="4" height="4" fill="#9ED455"/>
    <rect x="52" y="28" width="4" height="4" fill="#9ED455"/>
    <rect x="52" y="32" width="4" height="4" fill="#9ED455"/>
    <rect x="52" y="36" width="4" height="4" fill="#57A756"/>
    <rect x="52" y="40" width="4" height="4" fill="#57A756"/>
    <rect x="56" y="24" width="4" height="4" fill="#9ED455"/>
    <rect x="56" y="28" width="4" height="4" fill="#57A756"/>
    <rect x="56" y="32" width="4" height="4" fill="#57A756"/>
    <rect x="56" y="36" width="4" height="4" fill="#57A756"/>
    <rect x="28" y="20" width="4" height="4" fill="#9ED455"/>
    <rect x="28" y="24" width="4" height="4" fill="#9ED455"/>
    <rect x="28" y="28" width="4" height="4" fill="#9ED455"/>
    <rect x="28" y="32" width="4" height="4" fill="#9ED455"/>
    <rect x="28" y="36" width="4" height="4" fill="#9ED455"/>
    <rect x="28" y="40" width="4" height="4" fill="#9ED455"/>
    <rect x="28" y="44" width="4" height="4" fill="#57A756"/>
    <rect x="28" y="48" width="4" height="4" fill="#57A756"/>
    <rect x="28" y="52" width="4" height="4" fill="#D09C4F"/>
    <rect x="24" y="52" width="4" height="4" fill="#57A756"/>
    <rect x="28" y="56" width="4" height="4" fill="#D09C4F"/>
    <rect x="24" y="56" width="4" height="4" fill="#57A756"/>
    <rect x="28" y="60" width="4" height="4" fill="#D09C4F"/>
    <rect x="24" y="60" width="4" height="4" fill="#D09C4F"/>
    <rect x="20" y="60" width="4" height="4" fill="#57A756"/>
    <rect x="40" y="20" width="4" height="4" fill="#57A756"/>
    <rect x="40" y="24" width="4" height="4" fill="#9ED455"/>
    <rect x="40" y="28" width="4" height="4" fill="#9ED455"/>
    <rect x="40" y="32" width="4" height="4" fill="#9ED455"/>
    <rect x="40" y="36" width="4" height="4" fill="#9ED455"/>
    <rect x="40" y="40" width="4" height="4" fill="#9ED455"/>
    <rect x="40" y="44" width="4" height="4" fill="#57A756"/>
    <rect x="40" y="48" width="4" height="4" fill="#9ED455"/>
    <rect x="40" y="52" width="4" height="4" fill="#9ED455"/>
    <rect x="40" y="56" width="4" height="4" fill="#D09C4F"/>
    <rect x="40" y="60" width="4" height="4" fill="#D09C4F"/>
    <rect x="52" y="4" width="4" height="4" fill="#457F2C"/>
    <rect x="36" y="16" width="4" height="4" fill="#457F2C"/>
    <rect x="12" y="24" width="4" height="4" fill="#457F2C"/>
    <rect x="4" y="36" width="4" height="4" transform="rotate(90 4 36)" fill="#457F2C"/>
    <rect x="20" y="44" width="4" height="4" fill="#457F2C"/>
    <rect x="8" y="40" width="4" height="4" fill="#457F2C"/>
    <rect x="24" y="4" width="4" height="4" fill="#457F2C"/>
    <rect x="24" y="8" width="4" height="4" fill="#D5F86B"/>
    <rect x="48" y="8" width="4" height="4" fill="#D5F86B"/>
    <rect x="48" y="16" width="4" height="4" fill="white"/>
    <rect x="24" y="16" width="4" height="4" fill="white"/>
    <rect x="48" y="12" width="4" height="4" fill="white"/>
    <rect x="24" y="12" width="4" height="4" fill="white"/>
    <rect x="48" y="20" width="4" height="4" fill="white"/>
    <rect x="48" y="24" width="4" height="4" fill="#9ED455"/>
    <rect x="48" y="28" width="4" height="4" fill="#9ED455"/>
    <rect x="48" y="32" width="4" height="4" fill="#9ED455"/>
    <rect x="48" y="36" width="4" height="4" fill="#9ED455"/>
    <rect x="48" y="40" width="4" height="4" fill="#57A756"/>
    <rect x="24" y="20" width="4" height="4" fill="white"/>
    <rect x="24" y="24" width="4" height="4" fill="#9ED455"/>
    <rect x="24" y="28" width="4" height="4" fill="#9ED455"/>
    <rect x="24" y="32" width="4" height="4" fill="#9ED455"/>
    <rect x="24" y="36" width="4" height="4" fill="#9ED455"/>
    <rect x="24" y="40" width="4" height="4" fill="#57A756"/>
    <rect x="12" y="28" width="4" height="4" fill="#D5F86B"/>
    <rect x="12" y="32" width="4" height="4" fill="#9ED455"/>
    <rect x="12" y="36" width="4" height="4" fill="black"/>
    <rect x="36" y="20" width="4" height="4" fill="#9ED455"/>
    <rect x="36" y="24" width="4" height="4" fill="#9ED455"/>
    <rect x="36" y="28" width="4" height="4" fill="#9ED455"/>
    <rect x="36" y="32" width="4" height="4" fill="#9ED455"/>
    <rect x="36" y="36" width="4" height="4" fill="#9ED455"/>
    <rect x="36" y="40" width="4" height="4" fill="#9ED455"/>
    <rect x="36" y="44" width="4" height="4" fill="#9ED455"/>
    <rect x="36" y="48" width="4" height="4" fill="#D09C4F"/>
    <rect x="36" y="52" width="4" height="4" fill="#D09C4F"/>
    <rect x="36" y="56" width="4" height="4" fill="#D09C4F"/>
    <rect x="36" y="60" width="4" height="4" fill="#D09C4F"/>
    <rect x="48" y="4" width="4" height="4" fill="#457F2C"/>
    <rect x="8" y="24" width="4" height="4" fill="#457F2C"/>
    <rect x="4" y="32" width="4" height="4" transform="rotate(90 4 32)" fill="#457F2C"/>
    <rect x="20" y="20" width="4" height="4" transform="rotate(90 20 20)" fill="#457F2C"/>
    <rect x="60" y="20" width="4" height="4" transform="rotate(90 60 20)" fill="#457F2C"/>
    <rect x="64" y="36" width="4" height="4" transform="rotate(90 64 36)" fill="#457F2C"/>
    <rect x="60" y="40" width="4" height="4" transform="rotate(90 60 40)" fill="#457F2C"/>
    <rect x="52" y="44" width="4" height="4" transform="rotate(90 52 44)" fill="#457F2C"/>
    <rect x="52" y="48" width="4" height="4" transform="rotate(90 52 48)" fill="#457F2C"/>
    <rect x="56" y="44" width="4" height="4" transform="rotate(90 56 44)" fill="#457F2C"/>
    <rect x="64" y="32" width="4" height="4" transform="rotate(90 64 32)" fill="#457F2C"/>
    <rect x="4" y="24" width="4" height="4" transform="rotate(90 4 24)" fill="#457F2C"/>
    <rect x="20" y="12" width="4" height="4" transform="rotate(90 20 12)" fill="#457F2C"/>
    <rect x="36" y="12" width="4" height="4" transform="rotate(90 36 12)" fill="#457F2C"/>
    <rect x="44" y="12" width="4" height="4" transform="rotate(90 44 12)" fill="#457F2C"/>
    <rect x="60" y="12" width="4" height="4" transform="rotate(90 60 12)" fill="#457F2C"/>
    <rect x="64" y="24" width="4" height="4" transform="rotate(90 64 24)" fill="#457F2C"/>
    <rect x="16" y="44" width="4" height="4" fill="#457F2C"/>
    <rect x="4" y="40" width="4" height="4" fill="#457F2C"/>
    <rect x="20" y="4" width="4" height="4" fill="#457F2C"/>
    <rect x="20" y="8" width="4" height="4" fill="#D5F86B"/>
    <rect x="44" y="8" width="4" height="4" fill="#D5F86B"/>
    <rect x="44" y="16" width="4" height="4" fill="black"/>
    <rect x="20" y="16" width="4" height="4" fill="black"/>
    <rect x="44" y="12" width="4" height="4" fill="white"/>
    <rect x="20" y="12" width="4" height="4" fill="white"/>
    <rect x="44" y="20" width="4" height="4" fill="black"/>
    <rect x="44" y="24" width="4" height="4" fill="#9ED455"/>
    <rect x="44" y="28" width="4" height="4" fill="#9ED455"/>
    <rect x="44" y="32" width="4" height="4" fill="#9ED455"/>
    <rect x="44" y="36" width="4" height="4" fill="#9ED455"/>
    <rect x="44" y="40" width="4" height="4" fill="#57A756"/>
    <rect x="44" y="44" width="4" height="4" fill="#57A756"/>
    <rect x="44" y="48" width="4" height="4" fill="#57A756"/>
    <rect x="44" y="52" width="4" height="4" fill="#9ED455"/>
    <rect x="48" y="52" width="4" height="4" fill="#57A756"/>
    <rect x="44" y="56" width="4" height="4" fill="#9ED455"/>
    <rect x="48" y="56" width="4" height="4" fill="#57A756"/>
    <rect x="44" y="60" width="4" height="4" fill="#9ED455"/>
    <rect x="48" y="60" width="4" height="4" fill="#9ED455"/>
    <rect x="52" y="60" width="4" height="4" fill="#57A756"/>
    <rect x="20" y="20" width="4" height="4" fill="black"/>
    <rect x="20" y="24" width="4" height="4" fill="#9ED455"/>
    <rect x="20" y="28" width="4" height="4" fill="#9ED455"/>
    <rect x="20" y="32" width="4" height="4" fill="#9ED455"/>
    <rect x="20" y="36" width="4" height="4" fill="black"/>
    <rect x="20" y="40" width="4" height="4" fill="#57A756"/>
    <rect x="8" y="28" width="4" height="4" fill="#D5F86B"/>
    <rect x="8" y="32" width="4" height="4" fill="#9ED455"/>
    <rect x="8" y="36" width="4" height="4" fill="#57A756"/>
    <rect x="16" y="24" width="4" height="4" fill="#57A756"/>
    <rect x="16" y="28" width="4" height="4" fill="#D5F86B"/>
    <rect x="16" y="32" width="4" height="4" fill="#9ED455"/>
    <rect x="16" y="36" width="4" height="4" fill="black"/>
    <rect x="16" y="40" width="4" height="4" fill="#57A756"/>
    <rect x="4" y="28" width="4" height="4" fill="#9ED455"/>
    <rect x="4" y="32" width="4" height="4" fill="#9ED455"/>
    <rect x="4" y="36" width="4" height="4" fill="#57A756"/>
    <rect x="4" y="24" width="4" height="4" fill="#D5F86B"/>
    <rect x="32" y="20" width="4" height="4" fill="#9ED455"/>
    <rect x="32" y="24" width="4" height="4" fill="#9ED455"/>
    <rect x="32" y="28" width="4" height="4" fill="#9ED455"/>
    <rect x="32" y="32" width="4" height="4" fill="#9ED455"/>
    <rect x="32" y="36" width="4" height="4" fill="#9ED455"/>
    <rect x="32" y="40" width="4" height="4" fill="#9ED455"/>
    <rect x="32" y="44" width="4" height="4" fill="#9ED455"/>
    <rect x="32" y="48" width="4" height="4" fill="#D09C4F"/>
    <rect x="32" y="52" width="4" height="4" fill="#D09C4F"/>
    <rect x="32" y="56" width="4" height="4" fill="#D09C4F"/>
    <rect x="32" y="60" width="4" height="4" fill="#D09C4F"/>
    <rect x="44" y="4" width="4" height="4" fill="#457F2C"/>
    <rect x="4" y="20" width="4" height="4" fill="#457F2C"/>
    <rect x="4" y="28" width="4" height="4" transform="rotate(90 4 28)" fill="#457F2C"/>
    <rect x="20" y="16" width="4" height="4" transform="rotate(90 20 16)" fill="#457F2C"/>
    <rect x="36" y="16" width="4" height="4" transform="rotate(90 36 16)" fill="#457F2C"/>
    <rect x="44" y="16" width="4" height="4" transform="rotate(90 44 16)" fill="#457F2C"/>
    <rect x="60" y="16" width="4" height="4" transform="rotate(90 60 16)" fill="#457F2C"/>
    <rect x="64" y="28" width="4" height="4" transform="rotate(90 64 28)" fill="#457F2C"/>
    <rect x="4" y="20" width="4" height="4" transform="rotate(90 4 20)" fill="#457F2C"/>
    <rect x="20" y="8" width="4" height="4" transform="rotate(90 20 8)" fill="#457F2C"/>
    <rect x="36" y="8" width="4" height="4" transform="rotate(90 36 8)" fill="#457F2C"/>
    <rect x="44" y="8" width="4" height="4" transform="rotate(90 44 8)" fill="#457F2C"/>
    <rect x="60" y="8" width="4" height="4" transform="rotate(90 60 8)" fill="#457F2C"/>
  </g>
  <defs>
    <clipPath id="clip0_2154_10136">
      <rect width="64" height="64" fill="white"/>
    </clipPath>
  </defs>
</svg>
