<?xml version="1.0" encoding="utf-8"?>
<!-- Generator: Adobe Illustrator 24.0.1, SVG Export Plug-In . SVG Version: 6.00 Build 0)  -->
<svg version="1.1" id="Layer_1" xmlns="http://www.w3.org/2000/svg" xmlns:xlink="http://www.w3.org/1999/xlink" x="0px" y="0px"
	 viewBox="0 0 666.4 246.2" style="enable-background:new 0 0 666.4 246.2;" xml:space="preserve">
<style type="text/css">
	.st0{font-family:'Causten-Bold';}
	.st1{font-size:74.5362px;}
	.st2{fill:#0383EA;}
</style>
<g>
	<text transform="matrix(1.1081 0 0 1 263.0768 152.1326)" class="st0 st1">NordicX</text>
</g>
<g>
	<g>
		<path class="st2" d="M209,147.6h-10.1l9.2,16.1h-54.2l9.6-16.1h-9.7l-14.5,24.5h84.1L209,147.6z M181.5,117.1l10.5,18.5h10
			l-20.5-35.2l-20.7,35.2h9.8L181.5,117.1z"/>
		<path class="st2" d="M204.6,87.1l-14.5,24.5l4.9,8.3l9.6-16.2l26.5,46.7h-18.4l4.9,8.4h28.8L204.6,87.1z M176.9,150.4l11-18.5
			l-4.8-8.4l-20.8,35.3h40.9l-4.8-8.4H176.9z"/>
		<path class="st2" d="M202.7,110.6l-5.1,8.6l10.3,18.2h-21.1l-5,8.4h41.4L202.7,110.6z M190.7,107.1l5-8.5l-14.3-24.6l-42.3,71.7
			h28.8l5-8.4h-19.2l27.7-46.7L190.7,107.1z"/>
	</g>
</g>
</svg>
