<?xml version="1.0" encoding="utf-8"?>
<!-- Generator: Adobe Illustrator 24.0.1, SVG Export Plug-In . SVG Version: 6.00 Build 0)  -->
<svg version="1.1" id="Layer_1" xmlns="http://www.w3.org/2000/svg" xmlns:xlink="http://www.w3.org/1999/xlink" x="0px" y="0px"
	 viewBox="0 0 853 165" style="enable-background:new 0 0 853 165;" xml:space="preserve">
<style type="text/css">
	.st0{fill:#FFFFFF;}
	.st1{fill:#505F74;}
	.st2{fill:#B2BBCD;}
	.st3{fill:#2C2825;}
	.st4{fill:none;}
	.st5{fill:#C1D2EA;}
	.st6{fill:#8896B2;}
	.st7{fill:#2C4059;}
	.st8{fill:#1A1A1A;}
</style>
<g>
	<g>
		<polygon class="st0" points="807.4,46.3 797.4,46.3 797.4,56.4 797.4,66.4 787.3,66.4 787.3,76.5 777.2,76.5 777.2,66.4 
			767.2,66.4 767.2,56.4 767.2,46.3 757.1,46.3 747,46.3 747,56.4 747,66.4 747,76.5 757.1,76.5 757.1,86.6 767.2,86.6 767.2,96.6 
			757.1,96.6 757.1,106.7 747,106.7 747,116.8 747,126.9 747,136.9 747,147 757.1,147 767.2,147 767.2,136.9 767.2,126.9 
			767.2,116.8 777.2,116.8 777.2,106.7 787.3,106.7 787.3,116.8 797.4,116.8 797.4,126.9 797.4,136.9 797.4,147 807.4,147 
			817.5,147 817.5,136.9 817.5,126.9 817.5,116.8 817.5,106.7 807.4,106.7 807.4,96.6 797.4,96.6 797.4,86.6 807.4,86.6 807.4,76.5 
			817.5,76.5 817.5,66.4 817.5,56.4 817.5,46.3 		"/>
	</g>
	<g>
		<path class="st0" d="M407.9,75h-46.8v12.8h-13.5v45.6h13.5V146h46.8v-12.6h13.7V87.7h-13.7V75z M401.9,125.8h-34.8V95.2h34.8
			V125.8z"/>
	</g>
	<g>
		<polygon class="st0" points="500.6,75 453.8,75 453.8,87.7 440.3,87.7 440.3,146 459.8,146 459.8,95.2 494.6,95.2 494.6,107.8 
			514.3,107.8 514.3,87.7 500.6,87.7 		"/>
	</g>
	<g>
		<path class="st0" d="M582.8,75h-40.9v12.8h-13.5v45.6h13.5V146h46.8v-12.6h13.9V55.8h-19.7L582.8,75L582.8,75z M582.7,125.8h-34.8
			V95.2h34.8V125.8z"/>
	</g>
	<g>
		<rect x="621.1" y="55.7" class="st0" width="19.5" height="14.2"/>
	</g>
	<g>
		<rect x="621.1" y="75" class="st0" width="19.5" height="71"/>
	</g>
	<g>
		<polygon class="st0" points="716.8,75 670,75 670,87.7 656.4,87.7 656.4,133.4 670,133.4 670,146 716.8,146 716.8,133.4 
			730.5,133.4 730.5,118.7 710.8,118.7 710.8,125.8 676,125.8 676,95.2 710.8,95.2 710.8,102.7 730.5,102.7 730.5,87.7 716.8,87.7 
					"/>
	</g>
	<g>
		<polygon class="st0" points="331.8,47 331.8,146.5 306.5,146.5 306.5,118.1 294.3,118.1 294.3,104.9 280.9,104.9 280.9,92.3 
			268,92.3 268,146.5 242,146.5 242,47 268,47 268,59.8 280.9,59.8 280.9,76.1 294.3,76.1 294.3,89.6 306.5,89.6 306.5,47 		"/>
	</g>
</g>
<g>
	<g>
		<polygon class="st1" points="195.8,41.4 195.8,41.4 195.8,41.4 		"/>
	</g>
	<g>
		<rect x="188.8" y="68.8" class="st1" width="14.1" height="6.9"/>
	</g>
	<g>
		<rect x="188.7" y="68.8" class="st1" width="0.1" height="6.9"/>
	</g>
	<g>
		<rect x="188.7" y="68.8" class="st2" width="0.1" height="6.9"/>
	</g>
	<g>
		<polygon class="st3" points="202.9,7.1 195.8,7.1 195.8,13.9 195.8,13.9 195.8,7.1 181.6,7.1 181.6,13.9 174.5,13.9 174.5,7.1 
			167.4,7.1 167.4,0.2 202.9,0.2 		"/>
	</g>
	<g>
		<rect x="202.9" y="7.1" class="st3" width="14.2" height="6.9"/>
	</g>
	<g>
		<rect x="217.1" y="13.9" class="st3" width="7.1" height="6.8"/>
	</g>
	<g>
		<rect x="224.2" y="20.8" class="st3" width="7.1" height="13.7"/>
	</g>
	<g>
		<rect x="188.7" y="68.8" class="st3" width="0.1" height="6.9"/>
	</g>
	<g>
		<rect x="202.8" y="68.8" class="st3" width="0.1" height="6.9"/>
	</g>
	<g>
		<rect x="181.6" y="82.5" class="st3" width="35.5" height="6.9"/>
	</g>
	<g>
		<rect x="217.1" y="75.6" class="st3" width="7.1" height="6.9"/>
	</g>
	<g>
		<rect x="224.2" y="61.9" class="st3" width="7.1" height="13.7"/>
	</g>
	<g>
		<rect x="231.3" y="34.5" class="st3" width="7.1" height="27.4"/>
	</g>
	<g>
		<polygon class="st4" points="195.8,20.8 202.9,20.8 202.9,20.8 		"/>
	</g>
	<g>
		<rect x="188.7" y="68.8" class="st1" width="0.1" height="6.9"/>
	</g>
</g>
<g>
	<polygon class="st3" points="60.8,13.9 67.9,13.9 67.9,7.1 75,7.1 75,0.2 39.5,0.2 39.5,7.1 60.8,7.1 	"/>
</g>
<g>
	<rect x="53.7" y="7.1" class="st5" width="7.1" height="6.9"/>
</g>
<g>
	<rect x="25.3" y="7.1" class="st3" width="14.2" height="6.9"/>
</g>
<g>
	<polygon class="st6" points="53.7,7.1 53.7,13.9 46.6,13.9 46.6,48.2 39.5,48.2 39.5,55.1 32.4,55.1 32.4,48.2 25.3,48.2 
		25.3,20.8 32.4,20.8 32.4,13.9 39.5,13.9 39.5,7.1 	"/>
</g>
<g>
	<polygon class="st3" points="60.8,13.9 60.8,20.8 53.7,20.8 53.7,41.4 46.6,41.4 46.6,13.9 	"/>
</g>
<g>
	<rect x="25.3" y="13.9" class="st1" width="7.1" height="6.9"/>
</g>
<g>
	<polygon class="st1" points="18.2,20.8 25.3,20.8 25.3,48.2 32.4,48.2 32.4,55.1 39.5,55.1 39.5,48.2 46.6,48.2 46.6,41.4 
		53.7,41.4 53.7,48.2 60.8,48.2 60.8,55.1 46.6,55.1 46.6,61.9 60.8,61.9 60.8,68.8 46.6,68.8 46.6,75.6 53.7,75.6 53.7,82.5 
		39.5,82.5 39.5,75.6 25.3,75.6 25.3,68.8 18.2,68.8 18.2,55.1 11.1,55.1 11.1,34.5 18.2,34.5 	"/>
</g>
<g>
	<rect x="18.2" y="13.9" class="st3" width="7.1" height="6.9"/>
</g>
<g>
	<rect x="11.1" y="20.8" class="st3" width="7.1" height="13.7"/>
</g>
<g>
	<rect x="4" y="34.5" class="st3" width="7.1" height="20.6"/>
</g>
<g>
	<rect x="11.1" y="55.1" class="st3" width="7.1" height="13.7"/>
</g>
<g>
	<rect x="18.2" y="68.8" class="st3" width="7.1" height="6.8"/>
</g>
<g>
	<rect x="25.3" y="75.6" class="st3" width="14.2" height="6.9"/>
</g>
<g>
	<rect x="39.5" y="82.5" class="st3" width="14.2" height="6.9"/>
</g>
<g>
	<polygon class="st7" points="60.8,89.4 53.7,89.4 53.7,75.6 46.6,75.6 46.6,68.8 60.8,68.8 	"/>
</g>
<g>
	<polygon class="st7" points="67.9,68.8 60.8,68.8 60.8,61.9 46.6,61.9 46.6,55.1 60.8,55.1 60.8,48.2 67.9,48.2 	"/>
</g>
<g>
	<rect x="53.7" y="41.4" class="st3" width="21.3" height="6.9"/>
</g>
<g>
	<polygon class="st3" points="46.6,41.4 53.7,41.4 53.7,20.8 60.8,20.8 60.8,13.9 46.6,13.9 	"/>
</g>
<g>
	<g>
		<g>
			<g>
				<rect x="25.3" y="13.9" class="st1" width="7.1" height="6.9"/>
				<path class="st1" d="M32.5,20.9h-7.4v-7.1h7.4V20.9z M25.4,20.7h6.9V14h-6.9V20.7z"/>
			</g>
			<g>
				<polygon class="st1" points="124.8,82.5 131.9,82.5 131.9,75.6 131.9,48.2 124.8,48.2 				"/>
				<path class="st1" d="M132,82.6h-7.4V48.1h7.4V82.6z M124.9,82.4h6.9v-34h-6.9V82.4z"/>
			</g>
			<g>
				<polygon class="st1" points="139,34.5 131.9,34.5 131.9,48.2 139,48.2 139,41.4 153.2,41.4 153.2,48.2 167.4,48.2 167.4,41.4 
					160.3,41.4 160.3,34.5 160.3,27.6 153.2,27.6 153.2,20.8 139,20.8 				"/>
				<path class="st1" d="M167.5,48.3h-14.4v-6.8h-14v6.8h-7.4v-14h7.1V20.7h14.5v6.8h7.1v13.8h7.1V48.3z M153.3,48.1h13.9v-6.6h-7.1
					V27.7h-7.1v-6.8h-14v13.7H132v13.5h6.9v-6.8h14.5V48.1z"/>
			</g>
			<g>
				<polygon class="st1" points="231.3,34.5 231.3,61.9 224.2,61.9 224.2,75.6 217.1,75.6 217.1,82.5 181.6,82.5 181.6,68.8 
					188.7,68.8 188.7,75.6 202.9,75.6 202.9,61.9 181.6,61.9 181.6,48.2 195.8,48.2 195.8,41.4 195.8,41.4 195.8,41.4 202.9,41.4 
					202.9,20.8 195.8,20.8 195.8,13.9 195.8,13.9 195.8,7.1 202.9,7.1 202.9,13.9 217.1,13.9 217.1,20.8 224.2,20.8 224.2,34.5 				
					"/>
				<path class="st1" d="M217.2,82.6h-35.8v-14h7.4v6.8h13.9V62h-21.3V48.1h14.2v-6.8h7.1V20.9h-7.1V7h7.4v6.8h14.2v6.9h7.1v13.7
					h7.1V62h-7.1v13.7h-7.1V82.6z M181.7,82.4H217v-6.9h7.1V61.8h7.1V34.6h-7.1V20.9H217V14h-14.2V7.2h-6.9v13.4h7.1v20.9h-7.1v6.8
					h-14.2v13.4H203v14h-14.4v-6.8h-6.9V82.4z"/>
			</g>
			<g>
				<polygon class="st1" points="174.5,89.4 174.5,48.2 167.4,48.2 167.4,116.8 160.3,116.8 160.3,130.5 146.1,130.5 146.1,137.4 
					153.2,137.4 153.2,144.2 181.6,144.2 181.6,137.4 181.6,116.8 174.5,116.8 				"/>
				<path class="st1" d="M181.7,144.3h-28.6v-6.8H146v-7.2h14.2v-13.7h7.1V48.1h7.4v68.6h7.1V144.3z M153.3,144.1h28.1v-27.2h-7.1
					V48.3h-6.9v68.6h-7.1v13.7h-14.2v6.7h7.1V144.1z"/>
			</g>
			<g>
				<polygon class="st1" points="67.9,116.8 75,116.8 75,123.6 82.1,123.6 82.1,109.9 75,109.9 75,103.1 67.9,103.1 67.9,82.5 
					60.8,82.5 60.8,89.4 60.8,109.9 67.9,109.9 				"/>
				<path class="st1" d="M82.2,123.7h-7.4v-6.8h-7.1V110h-7.1V82.4H68V103h7.1v6.8h7.1V123.7z M75.1,123.5H82V110h-7.1v-6.8h-7.1
					V82.6h-6.9v27.2H68v6.9h7.1V123.5z"/>
			</g>
			<g>
				<polygon class="st1" points="53.7,144.2 75,144.2 75,137.4 60.8,137.4 60.8,116.8 53.7,116.8 53.7,137.4 				"/>
				<path class="st1" d="M75.1,144.3H53.6v-27.7h7.3v20.6h14.2V144.3z M53.8,144.1h21v-6.5H60.7v-20.6h-6.8V144.1z"/>
			</g>
			<g>
				<polygon class="st1" points="89.2,157.9 89.2,144.2 96.3,144.2 96.3,130.5 89.2,130.5 89.2,137.4 82.1,137.4 82.1,151.1 
					46.6,151.1 46.6,144.2 39.5,144.2 39.5,157.9 				"/>
				<path class="st1" d="M89.3,158h-50v-14h7.4v6.9H82v-13.7h7.1v-6.9h7.3v14h-7.1V158z M39.6,157.8h49.5v-13.7h7.1v-13.5h-6.8v6.9
					h-7.1v13.7H46.5v-6.9h-6.9V157.8z"/>
			</g>
			<g>
				<rect x="139" y="137.4" class="st1" width="7.1" height="6.9"/>
				<path class="st1" d="M146.2,144.4h-7.4v-7.1h7.4V144.4z M139.1,144.2h6.9v-6.6h-6.9V144.2z"/>
			</g>
			<g>
				<polygon class="st1" points="181.6,144.2 181.6,151.1 139,151.1 139,157.9 195.8,157.9 195.8,144.2 188.7,144.2 				"/>
				<path class="st1" d="M195.9,158h-57V151h42.6v-6.9h14.4V158z M139.1,157.8h56.5v-13.5h-13.9v6.9h-42.6V157.8z"/>
			</g>
			<g>
				<polygon class="st1" points="53.7,75.6 46.6,75.6 46.6,68.8 60.8,68.8 60.8,61.9 46.6,61.9 46.6,55.1 60.8,55.1 60.8,48.2 
					53.7,48.2 53.7,41.4 46.6,41.4 46.6,48.2 39.5,48.2 39.5,55.1 32.4,55.1 32.4,48.2 25.3,48.2 25.3,20.8 18.2,20.8 18.2,34.5 
					11.1,34.5 11.1,55.1 18.2,55.1 18.2,68.8 25.3,68.8 25.3,75.6 39.5,75.6 39.5,82.5 53.7,82.5 				"/>
				<path class="st1" d="M53.8,82.6H39.4v-6.9H25.2v-6.8h-7.1V55.2H11V34.4h7.1V20.7h7.3v27.4h7.1V55h6.9v-6.9h7.1v-6.8h7.4v6.8h7.1
					v7.1H46.7v6.5h14.2v7.1H46.7v6.6h7.1V82.6z M39.6,82.4h14v-6.6h-7.1v-7.1h14.2V62H46.5v-7h14.2v-6.6h-7.1v-6.8h-6.9v6.8h-7.1
					v6.9h-7.4v-6.9h-7.1V20.9h-6.8v13.7h-7.1V55h7.1v13.7h7.1v6.8h14.2V82.4z"/>
			</g>
		</g>
		<g>
			<polygon class="st6" points="32.4,13.9 32.4,20.8 25.3,20.8 25.3,48.2 32.4,48.2 32.4,55.1 39.5,55.1 39.5,48.2 46.6,48.2 
				46.6,41.4 46.6,20.8 46.6,13.9 53.7,13.9 53.7,7.1 39.5,7.1 39.5,13.9 			"/>
			<path class="st6" d="M39.6,55.2h-7.4v-6.9h-7.1V20.7h7.1v-6.9h7.1V7h14.5v7h-7.1v34.3h-7.1V55.2z M32.5,55h6.9v-6.9h7.1V13.8h7.1
				V7.2h-14V14h-7.1v6.9h-7.1v27.2h7.1V55z"/>
		</g>
		<g>
			<g>
				<rect x="160.3" y="34.5" class="st2" width="7.1" height="6.9"/>
				<path class="st2" d="M167.5,41.5h-7.4v-7.1h7.4V41.5z M160.4,41.3h6.9v-6.6h-6.9V41.3z"/>
			</g>
			<g>
				<polygon class="st2" points="75,123.6 75,116.8 67.9,116.8 67.9,109.9 60.8,109.9 60.8,116.8 60.8,137.4 75,137.4 82.1,137.4 
					82.1,123.6 				"/>
				<path class="st2" d="M82.2,137.5H60.7v-27.8H68v6.9h7.1v6.8h7.1V137.5z M60.9,137.3H82v-13.6h-7.1v-6.8h-7.1V110h-6.9V137.3z"/>
			</g>
			<g>
				<rect x="89.2" y="116.8" class="st2" width="7.1" height="13.7"/>
				<path class="st2" d="M96.4,130.6h-7.3v-14h7.3V130.6z M89.3,130.4h6.8v-13.5h-6.8V130.4z"/>
			</g>
			<g>
				<polygon class="st2" points="139,116.8 131.9,116.8 131.9,144.2 139,144.2 139,137.4 				"/>
				<path class="st2" d="M139.1,144.3h-7.4v-27.7h7.4V144.3z M132,144.1h6.9v-27.2H132V144.1z"/>
			</g>
			<g>
				<rect x="53.7" y="7.1" class="st2" width="7.1" height="6.9"/>
				<path class="st2" d="M60.9,14.1h-7.3V7h7.3V14.1z M53.8,13.9h6.8V7.2h-6.8V13.9z"/>
			</g>
			<g>
				<rect x="46.6" y="13.9" class="st2" width="7.1" height="6.9"/>
				<path class="st2" d="M53.8,20.9h-7.4v-7.1h7.4V20.9z M46.7,20.7h6.9V14h-6.9V20.7z"/>
			</g>
			<g>
				<polygon class="st2" points="124.8,82.5 124.8,48.2 124.8,34.5 117.7,34.5 117.7,48.2 110.6,48.2 110.6,82.5 				"/>
				<path class="st2" d="M124.9,82.6h-14.4V48.1h7.1V34.4h7.3V82.6z M110.7,82.4h13.9V34.6h-6.8v13.7h-7.1V82.4z"/>
			</g>
			<g>
				<polygon class="st2" points="153.2,41.4 139,41.4 139,48.2 131.9,48.2 131.9,75.6 153.2,75.6 153.2,82.5 160.3,82.5 
					160.3,103.1 153.2,103.1 153.2,109.9 146.1,109.9 146.1,130.5 160.3,130.5 160.3,116.8 167.4,116.8 167.4,48.2 153.2,48.2 				
					"/>
				<path class="st2" d="M160.4,130.6H146v-20.8h7.1V103h7.1V82.6h-7.1v-6.9h-21.3V48.1h7.1v-6.8h14.5v6.8h14.2v68.8h-7.1V130.6z
					 M146.2,130.4h13.9v-13.7h7.1V48.3h-14.2v-6.8h-14v6.8H132v27.1h21.3v6.9h7.1v20.8h-7.1v6.8h-7.1V130.4z"/>
			</g>
			<g>
				<rect x="188.7" y="68.8" class="st2" width="14.2" height="6.9"/>
				<path class="st2" d="M203,75.8h-14.4v-7.2H203V75.8z M188.8,75.6h13.9v-6.7h-13.9V75.6z"/>
			</g>
			<g>
				<polygon class="st2" points="67.9,48.2 67.9,68.8 60.8,68.8 60.8,82.5 67.9,82.5 67.9,75.6 89.2,75.6 89.2,82.5 103.4,82.5 
					103.4,48.2 110.6,48.2 110.6,34.5 117.7,34.5 117.7,27.6 96.3,27.6 96.3,34.5 82.1,34.5 82.1,41.4 75,41.4 75,48.2 				"/>
				<path class="st2" d="M103.5,82.6H89.1v-6.9H68v6.9h-7.4v-14h7.1V48.1h7.1v-6.8H82v-6.9h14.2v-6.9h21.7v7.1h-7.1v13.7h-7.2V82.6z
					 M89.3,82.4h13.9V48.1h7.2V34.4h7.1v-6.6H96.4v6.9H82.2v6.9h-7.1v6.8H68v20.6h-7.1v13.5h6.9v-6.9h21.6V82.4z"/>
			</g>
			<g>
				<rect x="124.8" y="20.8" class="st2" width="7.1" height="13.7"/>
				<path class="st2" d="M132,34.6h-7.4v-14h7.4V34.6z M124.9,34.4h6.9V20.9h-6.9V34.4z"/>
			</g>
		</g>
		<g>
			<g>
				<rect x="11.1" y="55.1" class="st3" width="7.1" height="13.7"/>
				<path class="st3" d="M18.3,68.9H11V55h7.4V68.9z M11.2,68.7h6.9V55.2h-6.9V68.7z"/>
			</g>
			<g>
				<rect x="18.2" y="68.8" class="st3" width="7.1" height="6.8"/>
				<path class="st3" d="M25.4,75.7h-7.3v-7.1h7.3V75.7z M18.3,75.5h6.8v-6.6h-6.8V75.5z"/>
			</g>
			<g>
				<rect x="25.3" y="75.6" class="st3" width="14.2" height="6.9"/>
				<path class="st3" d="M39.6,82.6H25.2v-7.1h14.5V82.6z M25.4,82.4h14v-6.6h-14V82.4z"/>
			</g>
			<g>
				<rect x="4" y="34.5" class="st3" width="7.1" height="20.6"/>
				<path class="st3" d="M11.2,55.2H3.9V34.4h7.4V55.2z M4.1,55H11V34.6H4.1V55z"/>
			</g>
			<g>
				<rect x="11.1" y="20.8" class="st3" width="7.1" height="13.7"/>
				<path class="st3" d="M18.3,34.6H11v-14h7.4V34.6z M11.2,34.4h6.9V20.9h-6.9V34.4z"/>
			</g>
			<g>
				<rect x="18.2" y="13.9" class="st3" width="7.1" height="6.9"/>
				<path class="st3" d="M25.4,20.9h-7.3v-7.1h7.3V20.9z M18.3,20.7h6.8V14h-6.8V20.7z"/>
			</g>
			<g>
				<polygon class="st3" points="39.5,13.9 39.5,7.1 25.3,7.1 25.3,13.9 32.4,13.9 				"/>
				<path class="st3" d="M39.6,14H25.2V7h14.5V14z M25.4,13.8h14V7.2h-14V13.8z"/>
			</g>
			<g>
				<rect x="53.7" y="13.9" class="st3" width="7.1" height="6.9"/>
				<path class="st3" d="M60.9,20.9h-7.3v-7.1h7.3V20.9z M53.8,20.7h6.8V14h-6.8V20.7z"/>
			</g>
			<g>
				<rect x="46.6" y="20.8" class="st3" width="7.1" height="20.6"/>
				<path class="st3" d="M53.8,41.5h-7.4V20.7h7.4V41.5z M46.7,41.3h6.9V20.9h-6.9V41.3z"/>
			</g>
			<g>
				<polygon class="st3" points="60.8,48.2 67.9,48.2 75,48.2 75,41.4 53.7,41.4 53.7,48.2 				"/>
				<path class="st3" d="M75.1,48.3H53.6v-7.1h21.5V48.3z M53.8,48.1h21v-6.6h-21V48.1z"/>
			</g>
			<g>
				<rect x="75" y="34.5" class="st3" width="7.1" height="6.9"/>
				<path class="st3" d="M82.2,41.5h-7.4v-7.1h7.4V41.5z M75.1,41.3H82v-6.6h-6.9V41.3z"/>
			</g>
			<g>
				<rect x="82.1" y="27.6" class="st3" width="14.2" height="6.8"/>
				<path class="st3" d="M96.4,34.5H82v-7h14.4V34.5z M82.2,34.3h13.9v-6.5H82.2V34.3z"/>
			</g>
			<g>
				<rect x="96.3" y="20.8" class="st3" width="21.3" height="6.9"/>
				<path class="st3" d="M117.7,27.8H96.2v-7.2h21.6V27.8z M96.4,27.6h21.1v-6.7H96.4V27.6z"/>
			</g>
			<g>
				<polygon class="st3" points="131.9,20.8 139,20.8 153.2,20.8 153.2,13.9 117.7,13.9 117.7,20.8 124.8,20.8 				"/>
				<path class="st3" d="M153.3,20.9h-35.8v-7.1h35.8V20.9z M117.8,20.7h35.3V14h-35.3V20.7z"/>
			</g>
			<g>
				<rect x="153.2" y="20.8" class="st3" width="7.1" height="6.9"/>
				<path class="st3" d="M160.4,27.8h-7.3v-7.2h7.3V27.8z M153.3,27.6h6.8v-6.7h-6.8V27.6z"/>
			</g>
			<g>
				<rect x="160.3" y="27.6" class="st3" width="7.1" height="6.8"/>
				<path class="st3" d="M167.5,34.5h-7.4v-7h7.4V34.5z M160.4,34.3h6.9v-6.5h-6.9V34.3z"/>
			</g>
			<g>
				<polygon class="st3" points="195.8,20.8 195.8,41.4 188.7,41.4 188.7,48.2 174.5,48.2 174.5,41.4 167.4,41.4 167.4,34.5 
					174.5,34.5 174.5,41.4 188.7,41.4 188.7,20.8 				"/>
				<path class="st3" d="M188.8,48.3h-14.5v-6.8h-7.1v-7.1h7.4v6.9h14V20.7h7.3v20.9h-7.1V48.3z M174.6,48.1h14v-6.6h-14V48.1z
					 M188.8,41.3h6.8V20.9h-6.8V41.3z M167.5,41.3h6.9v-6.6h-6.9V41.3z"/>
			</g>
			<g>
				<rect x="181.6" y="13.9" class="st3" width="7.1" height="6.9"/>
				<path class="st3" d="M188.8,20.9h-7.4v-7.1h7.4V20.9z M181.7,20.7h6.9V14h-6.9V20.7z"/>
			</g>
			<g>
				<polygon class="st3" points="202.9,0.2 202.9,7.1 181.6,7.1 181.6,13.9 174.5,13.9 174.5,7.1 167.4,7.1 167.4,0.2 				"/>
				<path class="st3" d="M181.7,14h-7.4V7.2h-7.1V0.1H203v7.1h-21.3V14z M174.6,13.8h6.9V7h21.3V0.3h-35.3V7h7.1V13.8z"/>
			</g>
			<g>
				<rect x="217.1" y="13.9" class="st3" width="7.1" height="6.8"/>
				<path class="st3" d="M224.3,20.8H217v-7.1h7.4V20.8z M217.2,20.6h6.9V14h-6.9V20.6z"/>
			</g>
			<g>
				<rect x="202.9" y="7.1" class="st3" width="14.2" height="6.9"/>
				<path class="st3" d="M217.2,14.1h-14.5V7h14.5V14.1z M203,13.9h14V7.2h-14V13.9z"/>
			</g>
			<g>
				<rect x="224.2" y="20.8" class="st3" width="7.1" height="13.7"/>
				<path class="st3" d="M231.4,34.6h-7.3v-14h7.3V34.6z M224.3,34.4h6.8V20.9h-6.8V34.4z"/>
			</g>
			<g>
				<rect x="231.3" y="34.5" class="st3" width="7.1" height="27.4"/>
				<path class="st3" d="M238.5,62h-7.4V34.4h7.4V62z M231.4,61.8h6.9V34.6h-6.9V61.8z"/>
			</g>
			<g>
				<polygon class="st3" points="60.8,7.1 60.8,13.9 67.9,13.9 67.9,7.1 75,7.1 75,0.2 39.5,0.2 39.5,7.1 53.7,7.1 				"/>
				<path class="st3" d="M68,14h-7.4V7.2H39.4V0.1h35.8v7.1H68V14z M60.9,13.8h6.9V7h7.1V0.3H39.6V7h21.3V13.8z"/>
			</g>
			<g>
				<polygon class="st3" points="60.8,109.9 60.8,89.4 53.7,89.4 53.7,116.8 60.8,116.8 				"/>
				<path class="st3" d="M60.9,116.9h-7.3V89.3h7.3V116.9z M53.8,116.7h6.8V89.5h-6.8V116.7z"/>
			</g>
			<g>
				<rect x="39.5" y="82.5" class="st3" width="14.2" height="6.9"/>
				<path class="st3" d="M53.8,89.5H39.4v-7.2h14.5V89.5z M39.6,89.3h14v-6.7h-14V89.3z"/>
			</g>
			<g>
				<rect x="174.5" y="89.4" class="st3" width="7.1" height="27.4"/>
				<path class="st3" d="M181.7,116.9h-7.4V89.3h7.4V116.9z M174.6,116.7h6.9V89.5h-6.9V116.7z"/>
			</g>
			<g>
				<rect x="181.6" y="82.5" class="st3" width="35.5" height="6.9"/>
				<path class="st3" d="M217.2,89.5h-35.8v-7.2h35.8V89.5z M181.7,89.3H217v-6.7h-35.3V89.3z"/>
			</g>
			<g>
				<rect x="224.2" y="61.9" class="st3" width="7.1" height="13.7"/>
				<path class="st3" d="M231.4,75.7h-7.3v-14h7.3V75.7z M224.3,75.5h6.8V62h-6.8V75.5z"/>
			</g>
			<g>
				<rect x="217.1" y="75.6" class="st3" width="7.1" height="6.9"/>
				<path class="st3" d="M224.3,82.6H217v-7.1h7.4V82.6z M217.2,82.4h6.9v-6.6h-6.9V82.4z"/>
			</g>
			<g>
				<rect x="181.6" y="116.8" class="st3" width="7.1" height="20.6"/>
				<path class="st3" d="M188.8,137.5h-7.4v-20.9h7.4V137.5z M181.7,137.3h6.9v-20.4h-6.9V137.3z"/>
			</g>
			<g>
				<polygon class="st3" points="117.7,109.9 124.8,109.9 124.8,103.1 146.1,103.1 153.2,103.1 153.2,96.2 146.1,96.2 146.1,89.4 
					131.9,89.4 131.9,96.2 89.2,96.2 89.2,89.4 82.1,89.4 82.1,103.1 103.4,103.1 103.4,109.9 110.6,109.9 110.6,144.2 103.4,144.2 
					103.4,151.1 124.8,151.1 124.8,144.2 117.7,144.2 				"/>
				<path class="st3" d="M124.9,151.2h-21.6v-7.1h7.2v-34h-7.2v-6.8H82V89.3h7.4v6.8h42.4v-6.8h14.5v6.8h7.1v7.1h-28.4v6.8h-7.1v34
					h7.1V151.2z M103.5,151h21.1v-6.6h-7.1v-34.5h7.1V103h28.4v-6.6H146v-6.8h-14v6.8H89.1v-6.8h-6.9V103h21.3v6.8h7.2v34.5h-7.2
					V151z"/>
			</g>
			<g>
				<rect x="39.5" y="137.4" class="st3" width="7.1" height="6.9"/>
				<path class="st3" d="M46.7,144.4h-7.4v-7.1h7.4V144.4z M39.6,144.2h6.9v-6.6h-6.9V144.2z"/>
			</g>
			<g>
				<rect x="46.6" y="116.8" class="st3" width="7.1" height="20.6"/>
				<path class="st3" d="M53.8,137.5h-7.4v-20.9h7.4V137.5z M46.7,137.3h6.9v-20.4h-6.9V137.3z"/>
			</g>
			<g>
				<polygon class="st3" points="39.5,157.9 39.5,144.2 32.4,144.2 32.4,164.8 96.3,164.8 96.3,157.9 89.2,157.9 				"/>
				<path class="st3" d="M96.4,164.9H32.3v-20.8h7.4v13.7h56.8V164.9z M32.5,164.7h63.6V158H39.4v-13.7h-6.9V164.7z"/>
			</g>
			<g>
				<rect x="188.7" y="137.4" class="st3" width="7.1" height="6.9"/>
				<path class="st3" d="M195.9,144.4h-7.3v-7.1h7.3V144.4z M188.8,144.2h6.8v-6.6h-6.8V144.2z"/>
			</g>
			<g>
				<polygon class="st3" points="139,157.9 131.9,157.9 131.9,164.8 202.9,164.8 202.9,144.2 195.8,144.2 195.8,157.9 				"/>
				<path class="st3" d="M203,164.9h-71.3v-7.1h63.9v-13.7h7.4V164.9z M132,164.7h70.8v-20.3h-6.9V158H132V164.7z"/>
			</g>
		</g>
		<g>
			<g>
				<polygon class="st7" points="67.9,48.2 60.8,48.2 60.8,55.1 46.6,55.1 46.6,61.9 60.8,61.9 60.8,68.8 67.9,68.8 				"/>
				<path class="st7" d="M68,68.9h-7.4V62H46.5v-7h14.2v-6.9H68V68.9z M60.9,68.7h6.9V48.3h-6.9v6.9H46.7v6.5h14.2V68.7z"/>
			</g>
			<g>
				<rect x="110.6" y="34.5" class="st7" width="7.1" height="13.7"/>
				<path class="st7" d="M117.8,48.3h-7.4v-14h7.4V48.3z M110.7,48.1h6.9V34.6h-6.9V48.1z"/>
			</g>
			<g>
				<rect x="131.9" y="20.8" class="st7" width="7.1" height="13.7"/>
				<path class="st7" d="M139.1,34.6h-7.4v-14h7.4V34.6z M132,34.4h6.9V20.9H132V34.4z"/>
			</g>
			<g>
				<rect x="124.8" y="34.5" class="st7" width="7.1" height="13.7"/>
				<path class="st7" d="M132,48.3h-7.4v-14h7.4V48.3z M124.9,48.1h6.9V34.6h-6.9V48.1z"/>
			</g>
			<g>
				<polygon class="st7" points="117.7,34.5 124.8,34.5 124.8,20.8 117.7,20.8 117.7,27.6 				"/>
				<path class="st7" d="M124.9,34.6h-7.3v-14h7.3V34.6z M117.8,34.4h6.8V20.9h-6.8V34.4z"/>
			</g>
			<g>
				<polygon class="st7" points="174.5,48.2 174.5,41.4 167.4,41.4 167.4,41.4 167.4,41.4 167.4,48.2 				"/>
				<path class="st7" d="M174.6,48.3h-7.4v-7.1h7.4V48.3z M167.5,48.1h6.9v-6.6h-6.9V48.1z"/>
			</g>
			<g>
				<polygon class="st7" points="82.1,109.9 82.1,123.6 82.1,137.4 89.2,137.4 89.2,130.5 89.2,116.8 96.3,116.8 96.3,130.5 
					96.3,144.2 103.4,144.2 103.4,109.9 				"/>
				<path class="st7" d="M103.5,144.3h-7.4v-27.4h-6.8v20.6H82v-27.8h21.5V144.3z M96.4,144.1h6.9v-34h-21v27.3h6.9v-20.6h7.3V144.1
					z"/>
			</g>
			<g>
				<rect x="89.2" y="144.2" class="st7" width="7.1" height="13.7"/>
				<path class="st7" d="M96.4,158h-7.3v-14h7.3V158z M89.3,157.8h6.8v-13.5h-6.8V157.8z"/>
			</g>
			<g>
				<polygon class="st7" points="131.9,89.4 131.9,82.5 124.8,82.5 110.6,82.5 110.6,48.2 103.4,48.2 103.4,82.5 89.2,82.5 
					89.2,89.4 				"/>
				<path class="st7" d="M132,89.5H89.1v-7.2h14.2V48.1h7.5v34.3H132V89.5z M89.3,89.3h42.4v-6.7h-21.3V48.3h-7v34.3H89.3V89.3z"/>
			</g>
			<g>
				<rect x="131.9" y="75.6" class="st7" width="21.3" height="6.9"/>
				<path class="st7" d="M153.3,82.6h-21.6v-7.1h21.6V82.6z M132,82.4h21.1v-6.6H132V82.4z"/>
			</g>
			<g>
				<polygon class="st7" points="153.2,103.1 160.3,103.1 160.3,82.5 153.2,82.5 153.2,96.2 				"/>
				<path class="st7" d="M160.4,103.2h-7.3V82.4h7.3V103.2z M153.3,103h6.8V82.6h-6.8V103z"/>
			</g>
			<g>
				<polygon class="st7" points="202.9,61.9 202.9,68.8 181.6,68.8 181.6,89.4 174.5,89.4 174.5,48.2 181.6,48.2 181.6,61.9 				"/>
				<path class="st7" d="M181.7,89.5h-7.4V48.1h7.4v13.7H203v7.1h-21.3V89.5z M174.6,89.3h6.9V68.7h21.3V62h-21.3V48.3h-6.9V89.3z"
					/>
			</g>
			<g>
				<rect x="146.1" y="103.1" class="st7" width="7.1" height="6.9"/>
				<path class="st7" d="M153.3,110.1H146V103h7.4V110.1z M146.2,109.9h6.9v-6.7h-6.9V109.9z"/>
			</g>
			<g>
				<rect x="181.6" y="137.4" class="st7" width="7.1" height="6.9"/>
				<path class="st7" d="M188.8,144.4h-7.4v-7.1h7.4V144.4z M181.7,144.2h6.9v-6.6h-6.9V144.2z"/>
			</g>
			<g>
				<polygon class="st7" points="124.8,109.9 124.8,144.2 131.9,144.2 131.9,116.8 139,116.8 139,137.4 146.1,137.4 146.1,130.5 
					146.1,109.9 				"/>
				<path class="st7" d="M132,144.3h-7.4v-34.5h21.6v27.8h-7.4v-20.6H132V144.3z M124.9,144.1h6.9v-27.4h7.4v20.6h6.9V110h-21.1
					V144.1z"/>
			</g>
			<g>
				<polygon class="st7" points="60.8,82.5 60.8,68.8 46.6,68.8 46.6,75.6 53.7,75.6 53.7,82.5 53.7,89.4 60.8,89.4 				"/>
				<path class="st7" d="M60.9,89.5h-7.3V75.7h-7.1v-7.1h14.4V89.5z M53.8,89.3h6.8V68.9H46.7v6.6h7.1V89.3z"/>
			</g>
			<g>
				<polygon class="st7" points="75,103.1 75,82.5 89.2,82.5 89.2,75.6 67.9,75.6 67.9,82.5 67.9,103.1 				"/>
				<path class="st7" d="M75.1,103.2h-7.4V75.5h21.6v7.1H75.1V103.2z M68,103h6.9V82.4h14.2v-6.6H68V103z"/>
			</g>
			<g>
				<rect x="75" y="103.1" class="st7" width="7.1" height="6.9"/>
				<path class="st7" d="M82.2,110.1h-7.4V103h7.4V110.1z M75.1,109.9H82v-6.7h-6.9V109.9z"/>
			</g>
			<g>
				<polygon class="st7" points="46.6,151.1 82.1,151.1 82.1,137.4 75,137.4 75,144.2 53.7,144.2 53.7,137.4 46.6,137.4 46.6,144.2 
									"/>
				<path class="st7" d="M82.2,151.2H46.5v-13.9h7.4v6.8h21v-6.8h7.4V151.2z M46.7,151H82v-13.4h-6.9v6.8H53.6v-6.8h-6.9V151z"/>
			</g>
			<g>
				<polygon class="st7" points="139,151.1 181.6,151.1 181.6,144.2 153.2,144.2 153.2,137.4 146.1,137.4 146.1,144.2 139,144.2 
					131.9,144.2 131.9,157.9 139,157.9 				"/>
				<path class="st7" d="M139.1,158h-7.4v-14H146v-6.8h7.4v6.8h28.4v7.1h-42.6V158z M132,157.8h6.9V151h42.6v-6.6h-28.4v-6.8h-6.9
					v6.8H132V157.8z"/>
			</g>
		</g>
	</g>
	<g>
		<g>
			<polygon class="st8" points="75,103.1 82.1,103.1 82.1,89.4 89.2,89.4 89.2,82.5 75,82.5 			"/>
			<path class="st8" d="M82.2,103.2h-7.4V82.4h14.5v7.2h-7.1V103.2z M75.1,103H82V89.3h7.1v-6.7h-14V103z"/>
		</g>
		<g>
			<rect x="82.1" y="103.1" class="st8" width="21.3" height="6.9"/>
			<path class="st8" d="M103.5,110.1H82V103h21.5V110.1z M82.2,109.9h21v-6.7h-21V109.9z"/>
		</g>
		<g>
			<rect x="124.8" y="103.1" class="st8" width="21.3" height="6.9"/>
			<path class="st8" d="M146.2,110.1h-21.6V103h21.6V110.1z M124.9,109.9H146v-6.7h-21.1V109.9z"/>
		</g>
		<g>
			<rect x="89.2" y="89.4" class="st8" width="42.6" height="6.9"/>
			<path class="st8" d="M131.9,96.4H89.1v-7.1h42.8V96.4z M89.3,96.2h42.3v-6.6H89.3V96.2z"/>
		</g>
		<g>
			<polygon class="st8" points="131.9,89.4 146.1,89.4 146.1,96.2 153.2,96.2 153.2,82.5 131.9,82.5 			"/>
			<path class="st8" d="M153.3,96.3H146v-6.8h-14.2v-7.2h21.6V96.3z M146.2,96.1h6.9V82.6H132v6.7h14.2V96.1z"/>
		</g>
		<g>
			<rect x="117.7" y="109.9" class="st8" width="7.1" height="34.3"/>
			<path class="st8" d="M124.9,144.3h-7.3v-34.5h7.3V144.3z M117.8,144.1h6.8v-34h-6.8V144.1z"/>
		</g>
		<g>
			<rect x="103.4" y="109.9" class="st8" width="7.1" height="34.3"/>
			<path class="st8" d="M110.6,144.3h-7.4v-34.5h7.4V144.3z M103.5,144.1h6.9v-34h-6.9V144.1z"/>
		</g>
		<g>
			<polygon class="st8" points="124.8,144.2 124.8,151.1 103.4,151.1 103.4,144.2 96.3,144.2 96.3,157.9 131.9,157.9 131.9,144.2 
							"/>
			<path class="st8" d="M132,158H96.2v-14h7.4v6.9h21.1v-6.9h7.4V158z M96.4,157.8h35.4v-13.5h-6.9v6.9h-21.6v-6.9h-6.9V157.8z"/>
		</g>
	</g>
</g>
</svg>
