<?xml version="1.0" encoding="utf-8"?>
<!-- Generator: Adobe Illustrator 24.0.1, SVG Export Plug-In . SVG Version: 6.00 Build 0)  -->
<svg version="1.1" id="Layer_1" xmlns="http://www.w3.org/2000/svg" xmlns:xlink="http://www.w3.org/1999/xlink" x="0px" y="0px"
	 viewBox="0 0 666.4 246.2" style="enable-background:new 0 0 666.4 246.2;" xml:space="preserve">
<style type="text/css">
	.st0{fill:#FFFFFF;}
	.st1{fill:#0383EA;}
</style>
<g>
	<path class="st0" d="M277.2,103.7l22.5,31.6v-31.6h10.7v48.4h-10.3l-22.5-31.5v31.5h-10.7v-48.4H277.2z"/>
	<path class="st0" d="M314.8,135c0-5.2,1.8-9.4,5.5-12.8c3.7-3.4,8.4-5,14.1-5c5.8,0,10.5,1.7,14.1,5c3.6,3.3,5.5,7.6,5.5,12.8
		c0,5.2-1.8,9.4-5.5,12.8c-3.7,3.4-8.4,5.1-14.1,5.1c-5.7,0-10.4-1.7-14.1-5.1C316.6,144.4,314.8,140.1,314.8,135z M324.9,135
		c0,2.6,0.9,4.7,2.6,6.4c1.7,1.7,4,2.5,6.8,2.5c2.8,0,5.1-0.8,6.8-2.5c1.7-1.7,2.6-3.8,2.6-6.4c0-2.6-0.9-4.7-2.6-6.4
		c-1.7-1.7-4-2.5-6.8-2.5c-2.8,0-5.1,0.8-6.8,2.5C325.8,130.3,324.9,132.4,324.9,135z"/>
	<path class="st0" d="M368.6,117.8v6.2c3-4.4,7.5-6.6,13.4-6.7v8.7c-8.9,0.2-13.4,3.7-13.4,10.4v15.7h-10.3v-34.3H368.6z"/>
	<path class="st0" d="M387.4,122.2c3.4-3.3,7.7-4.9,12.9-4.9c4.5,0,8.1,1.4,10.9,4.2v-17.8h10.3v48.4h-10.3v-3.6
		c-2.8,2.8-6.4,4.2-10.9,4.2c-5.2,0-9.5-1.7-12.9-5c-3.4-3.4-5.1-7.6-5.1-12.7C382.3,129.8,384,125.6,387.4,122.2z M392.3,135
		c0,2.6,0.9,4.7,2.6,6.4c1.8,1.7,4,2.5,6.9,2.5s5.1-0.8,6.8-2.5c1.7-1.7,2.6-3.8,2.6-6.4c0-2.6-0.9-4.7-2.6-6.4
		c-1.7-1.7-4-2.5-6.8-2.5s-5.1,0.8-6.9,2.5C393.1,130.3,392.3,132.4,392.3,135z"/>
	<path class="st0" d="M429,103.9c1.1-0.8,2.4-1.3,4-1.3c1.5,0,2.8,0.4,4,1.3s1.7,2.1,1.7,3.6c0,1.5-0.6,2.8-1.7,3.7
		c-1.2,1-2.5,1.5-4,1.5s-2.8-0.5-4-1.5s-1.7-2.2-1.7-3.8S427.9,104.8,429,103.9z M438.2,117.8l-0.1,34.3h-10.3v-34.3H438.2z"/>
	<path class="st0" d="M448.5,122.2c3.6-3.3,8.2-4.9,14-4.9c6.7,0,11.9,2.3,15.4,6.9l-7.4,5.1c-2-2.2-4.7-3.3-7.8-3.3
		c-2.8,0-5.1,0.8-6.9,2.5c-1.8,1.7-2.7,3.8-2.7,6.4c0,2.6,0.9,4.7,2.7,6.4c1.8,1.7,4.1,2.5,6.9,2.5c3.4,0,6-1,7.8-3.1l7.4,5
		c-3.6,4.7-8.7,7-15.4,7c-5.7,0-10.4-1.7-14-5c-3.6-3.3-5.4-7.6-5.4-12.8S444.9,125.5,448.5,122.2z"/>
	<path class="st0" d="M479,152.1l18-24.2l-18-24.2h12.4l11.8,15.9l11.8-15.9h12.3l-17.9,24.2l17.9,24.2H515l-11.8-15.9l-11.8,15.9
		H479z"/>
</g>
<g>
	<g>
		<path class="st1" d="M209,147.6h-10.1l9.2,16.1h-54.2l9.6-16.1h-9.7l-14.5,24.5h84.1L209,147.6z M181.5,117.1l10.5,18.5h10
			l-20.5-35.2l-20.7,35.2h9.8L181.5,117.1z"/>
		<path class="st1" d="M204.6,87.1l-14.5,24.5l4.9,8.3l9.6-16.2l26.5,46.7h-18.4l4.9,8.4h28.8L204.6,87.1z M176.9,150.4l11-18.5
			l-4.8-8.4l-20.8,35.3h40.9l-4.8-8.4H176.9z"/>
		<path class="st1" d="M202.7,110.6l-5.1,8.6l10.3,18.2h-21.1l-5,8.4h41.4L202.7,110.6z M190.7,107.1l5-8.5l-14.3-24.6l-42.3,71.7
			h28.8l5-8.4h-19.2l27.7-46.7L190.7,107.1z"/>
	</g>
</g>
</svg>
