<svg width="307" height="245" viewBox="0 0 307 245" fill="none" xmlns="http://www.w3.org/2000/svg">
<g clip-path="url(#clip0_45_194)" filter="url(#filter0_d_45_194)">
<rect x="25" y="111" width="9" height="9" fill="#2C2825"/>
<rect x="16" y="102" width="9" height="9" fill="#2C2825"/>
<rect x="16" y="93" width="9" height="9" fill="#2C2825"/>
<rect x="7" y="84" width="9" height="9" fill="#2C2825"/>
<rect x="7" y="75" width="9" height="9" fill="#2C2825"/>
<rect x="7" y="66" width="9" height="9" fill="#2C2825"/>
<rect x="16" y="57" width="9" height="9" fill="#2C2825"/>
<rect x="16" y="48" width="9" height="9" fill="#2C2825"/>
<rect x="25" y="39" width="9" height="9" fill="#2C2825"/>
<rect x="34" y="30" width="9" height="9" fill="#2C2825"/>
<rect x="43" y="30" width="9" height="9" fill="#2C2825"/>
<rect x="52" y="21" width="9" height="9" fill="#2C2825"/>
<rect opacity="0.65" x="52" y="30" width="9" height="9" fill="#8896B2"/>
<rect opacity="0.65" x="43" y="39" width="9" height="9" fill="#8896B2"/>
<rect opacity="0.65" x="34" y="48" width="9" height="9" fill="#8896B2"/>
<rect opacity="0.65" x="34" y="57" width="9" height="9" fill="#8896B2"/>
<rect opacity="0.65" x="34" y="66" width="9" height="9" fill="#8896B2"/>
<rect opacity="0.65" x="34" y="75" width="9" height="9" fill="#8896B2"/>
<rect x="34" y="39" width="9" height="9" fill="#505F74"/>
<rect x="25" y="48" width="9" height="9" fill="#505F74"/>
<rect x="25" y="57" width="9" height="9" fill="#505F74"/>
<rect x="25" y="66" width="9" height="9" fill="#505F74"/>
<rect x="16" y="66" width="9" height="9" fill="#505F74"/>
<rect x="25" y="75" width="9" height="9" fill="#505F74"/>
<rect x="25" y="93" width="9" height="9" fill="#505F74"/>
<rect x="34" y="93" width="9" height="9" fill="#505F74"/>
<rect x="43" y="93" width="9" height="9" fill="#505F74"/>
<rect x="52" y="93" width="9" height="9" fill="#505F74"/>
<rect x="61" y="93" width="9" height="9" fill="#2C4059"/>
<rect x="52" y="84" width="9" height="9" fill="#505F74"/>
<rect x="169" y="66" width="9" height="9" fill="#505F74"/>
<rect x="160" y="84" width="9" height="9" fill="#505F74"/>
<rect x="160" y="102" width="9" height="9" fill="#505F74"/>
<rect x="178" y="48" width="9" height="9" fill="#505F74"/>
<rect x="187" y="48" width="9" height="9" fill="#505F74"/>
<rect x="250" y="30" width="9" height="9" fill="#505F74"/>
<rect x="268" y="39" width="9" height="9" fill="#505F74"/>
<rect x="277" y="48" width="9" height="9" fill="#505F74"/>
<rect x="277" y="57" width="9" height="9" fill="#505F74"/>
<rect x="196" y="57" width="9" height="9" fill="#505F74"/>
<rect x="205" y="66" width="9" height="9" fill="#B2BBCD"/>
<rect x="61" y="84" width="9" height="9" fill="#505F74"/>
<rect x="70" y="84" width="9" height="9" fill="#505F74"/>
<rect x="79" y="84" width="9" height="9" fill="#2C4059"/>
<rect x="151" y="48" width="9" height="9" fill="#2C4059"/>
<rect x="142" y="66" width="9" height="9" fill="#2C4059"/>
<rect x="169" y="48" width="9" height="9" fill="#2C4059"/>
<rect x="160" y="66" width="9" height="9" fill="#2C4059"/>
<rect x="151" y="57" width="9" height="9" fill="#2C4059"/>
<rect x="142" y="75" width="9" height="9" fill="#2C4059"/>
<rect x="169" y="57" width="9" height="9" fill="#2C4059"/>
<rect x="160" y="75" width="9" height="9" fill="#2C4059"/>
<rect x="214" y="75" width="9" height="9" fill="#2C4059"/>
<rect x="70" y="111" width="9" height="9" fill="#2C4059"/>
<rect x="106" y="174" width="9" height="9" fill="#2C4059"/>
<rect x="106" y="165" width="9" height="9" fill="#2C4059"/>
<rect x="124" y="174" width="9" height="9" fill="#2C4059"/>
<rect x="124" y="192" width="9" height="9" fill="#2C4059"/>
<rect x="115" y="210" width="9" height="9" fill="#2C4059"/>
<rect x="115" y="165" width="9" height="9" fill="#2C4059"/>
<rect x="124" y="165" width="9" height="9" fill="#2C4059"/>
<rect x="124" y="183" width="9" height="9" fill="#2C4059"/>
<rect x="79" y="93" width="9" height="9" fill="#2C4059"/>
<rect x="70" y="120" width="9" height="9" fill="#2C4059"/>
<rect x="88" y="129" width="9" height="9" fill="#2C4059"/>
<rect x="97" y="120" width="9" height="9" fill="#2C4059"/>
<rect x="106" y="120" width="9" height="9" fill="#2C4059"/>
<rect x="115" y="129" width="9" height="9" fill="#2C4059"/>
<rect x="124" y="129" width="9" height="9" fill="#2C4059"/>
<rect x="133" y="129" width="9" height="9" fill="#2C4059"/>
<rect x="142" y="129" width="9" height="9" fill="#2C4059"/>
<rect x="151" y="129" width="9" height="9" fill="#2C4059"/>
<rect x="151" y="120" width="9" height="9" fill="#2C4059"/>
<rect x="133" y="120" width="9" height="9" fill="#2C4059"/>
<rect x="151" y="111" width="9" height="9" fill="#2C4059"/>
<rect x="133" y="111" width="9" height="9" fill="#2C4059"/>
<rect x="151" y="102" width="9" height="9" fill="#2C4059"/>
<rect x="133" y="102" width="9" height="9" fill="#2C4059"/>
<rect x="151" y="93" width="9" height="9" fill="#2C4059"/>
<rect x="133" y="93" width="9" height="9" fill="#2C4059"/>
<rect x="151" y="84" width="9" height="9" fill="#2C4059"/>
<rect x="133" y="84" width="9" height="9" fill="#2C4059"/>
<rect x="160" y="129" width="9" height="9" fill="#2C4059"/>
<rect x="169" y="120" width="9" height="9" fill="#2C4059"/>
<rect x="178" y="120" width="9" height="9" fill="#2C4059"/>
<rect x="187" y="120" width="9" height="9" fill="#2C4059"/>
<rect x="196" y="129" width="9" height="9" fill="#2C4059"/>
<rect x="223" y="129" width="9" height="9" fill="#2C4059"/>
<rect x="223" y="120" width="9" height="9" fill="#2C4059"/>
<rect x="223" y="111" width="9" height="9" fill="#2C4059"/>
<rect x="223" y="102" width="9" height="9" fill="#2C4059"/>
<rect x="232" y="102" width="9" height="9" fill="#2C4059"/>
<rect x="241" y="102" width="9" height="9" fill="#2C4059"/>
<rect x="250" y="102" width="9" height="9" fill="#2C4059"/>
<rect x="223" y="93" width="9" height="9" fill="#2C4059"/>
<rect x="223" y="84" width="9" height="9" fill="#2C4059"/>
<rect x="196" y="138" width="9" height="9" fill="#2C4059"/>
<rect x="196" y="147" width="9" height="9" fill="#2C4059"/>
<rect x="187" y="156" width="9" height="9" fill="#2C4059"/>
<rect x="160" y="165" width="9" height="9" fill="#2C4059"/>
<rect x="178" y="174" width="9" height="9" fill="#2C4059"/>
<rect x="160" y="174" width="9" height="9" fill="#2C4059"/>
<rect x="178" y="183" width="9" height="9" fill="#2C4059"/>
<rect x="160" y="183" width="9" height="9" fill="#2C4059"/>
<rect x="178" y="192" width="9" height="9" fill="#2C4059"/>
<rect x="160" y="192" width="9" height="9" fill="#2C4059"/>
<rect x="169" y="210" width="9" height="9" fill="#2C4059"/>
<rect x="178" y="210" width="9" height="9" fill="#2C4059"/>
<rect x="187" y="210" width="9" height="9" fill="#2C4059"/>
<rect x="187" y="201" width="9" height="9" fill="#2C4059"/>
<rect x="196" y="210" width="9" height="9" fill="#2C4059"/>
<rect x="205" y="210" width="9" height="9" fill="#2C4059"/>
<rect x="214" y="210" width="9" height="9" fill="#2C4059"/>
<rect x="223" y="210" width="9" height="9" fill="#2C4059"/>
<rect x="232" y="201" width="9" height="9" fill="#2C4059"/>
<rect x="160" y="201" width="9" height="9" fill="#2C4059"/>
<rect x="169" y="219" width="9" height="9" fill="#2C4059"/>
<rect x="169" y="165" width="9" height="9" fill="#2C4059"/>
<rect x="178" y="165" width="9" height="9" fill="#2C4059"/>
<rect x="106" y="183" width="9" height="9" fill="#2C4059"/>
<rect x="70" y="93" width="9" height="9" fill="#2C4059"/>
<rect x="79" y="102" width="9" height="9" fill="#2C4059"/>
<rect x="70" y="129" width="9" height="9" fill="#2C4059"/>
<rect x="88" y="138" width="9" height="9" fill="#2C4059"/>
<rect x="88" y="147" width="9" height="9" fill="#2C4059"/>
<rect x="97" y="156" width="9" height="9" fill="#2C4059"/>
<rect x="106" y="192" width="9" height="9" fill="#2C4059"/>
<rect x="124" y="201" width="9" height="9" fill="#2C4059"/>
<rect x="115" y="219" width="9" height="9" fill="#2C4059"/>
<rect x="61" y="201" width="9" height="9" fill="#2C4059"/>
<rect x="61" y="210" width="9" height="9" fill="#2C4059"/>
<rect x="70" y="210" width="9" height="9" fill="#2C4059"/>
<rect x="79" y="210" width="9" height="9" fill="#2C4059"/>
<rect x="88" y="210" width="9" height="9" fill="#2C4059"/>
<rect x="97" y="210" width="9" height="9" fill="#2C4059"/>
<rect x="97" y="201" width="9" height="9" fill="#2C4059"/>
<rect x="61" y="75" width="9" height="9" fill="#505F74"/>
<rect x="25" y="84" width="9" height="9" fill="#505F74"/>
<rect x="34" y="84" width="9" height="9" fill="#505F74"/>
<rect x="25" y="102" width="9" height="9" fill="#505F74"/>
<rect x="34" y="102" width="9" height="9" fill="#505F74"/>
<rect x="43" y="102" width="9" height="9" fill="#505F74"/>
<rect x="52" y="102" width="9" height="9" fill="#505F74"/>
<rect x="169" y="75" width="9" height="9" fill="#505F74"/>
<rect x="160" y="93" width="9" height="9" fill="#505F74"/>
<rect x="160" y="111" width="9" height="9" fill="#505F74"/>
<rect x="160" y="120" width="9" height="9" fill="#505F74"/>
<rect x="178" y="57" width="9" height="9" fill="#505F74"/>
<rect x="178" y="66" width="9" height="9" fill="#505F74"/>
<rect x="187" y="57" width="9" height="9" fill="#505F74"/>
<rect x="187" y="66" width="9" height="9" fill="#505F74"/>
<rect x="196" y="66" width="9" height="9" fill="#505F74"/>
<rect x="205" y="75" width="9" height="9" fill="#505F74"/>
<rect x="214" y="84" width="9" height="9" fill="#505F74"/>
<rect x="214" y="93" width="9" height="9" fill="#505F74"/>
<rect x="214" y="102" width="9" height="9" fill="#505F74"/>
<rect x="214" y="111" width="9" height="9" fill="#505F74"/>
<rect x="232" y="111" width="9" height="9" fill="#505F74"/>
<rect x="214" y="120" width="9" height="9" fill="#505F74"/>
<rect x="232" y="120" width="9" height="9" fill="#505F74"/>
<rect x="241" y="120" width="9" height="9" fill="#505F74"/>
<rect x="250" y="120" width="9" height="9" fill="#505F74"/>
<rect x="259" y="120" width="9" height="9" fill="#505F74"/>
<rect x="259" y="111" width="9" height="9" fill="#505F74"/>
<rect x="268" y="111" width="9" height="9" fill="#505F74"/>
<rect x="268" y="102" width="9" height="9" fill="#505F74"/>
<rect x="277" y="111" width="9" height="9" fill="#505F74"/>
<rect x="277" y="93" width="9" height="9" fill="#505F74"/>
<rect x="286" y="84" width="9" height="9" fill="#505F74"/>
<rect x="277" y="102" width="9" height="9" fill="#505F74"/>
<rect x="286" y="93" width="9" height="9" fill="#505F74"/>
<rect x="277" y="84" width="9" height="9" fill="#505F74"/>
<rect x="286" y="75" width="9" height="9" fill="#505F74"/>
<rect x="286" y="66" width="9" height="9" fill="#505F74"/>
<rect x="268" y="120" width="9" height="9" fill="#505F74"/>
<rect x="214" y="129" width="9" height="9" fill="#505F74"/>
<rect x="214" y="138" width="9" height="9" fill="#505F74"/>
<rect x="214" y="147" width="9" height="9" fill="#505F74"/>
<rect x="214" y="156" width="9" height="9" fill="#505F74"/>
<rect x="214" y="165" width="9" height="9" fill="#505F74"/>
<rect x="214" y="174" width="9" height="9" fill="#505F74"/>
<rect x="223" y="174" width="9" height="9" fill="#505F74"/>
<rect x="223" y="183" width="9" height="9" fill="#505F74"/>
<rect x="214" y="183" width="9" height="9" fill="#505F74"/>
<rect x="214" y="192" width="9" height="9" fill="#505F74"/>
<rect x="223" y="192" width="9" height="9" fill="#505F74"/>
<rect x="196" y="75" width="9" height="9" fill="#505F74"/>
<rect x="79" y="129" width="9" height="9" fill="#505F74"/>
<rect x="79" y="111" width="9" height="9" fill="#B2BBCD"/>
<rect x="88" y="102" width="9" height="9" fill="#B2BBCD"/>
<rect x="97" y="102" width="9" height="9" fill="#B2BBCD"/>
<rect x="106" y="102" width="9" height="9" fill="#B2BBCD"/>
<rect x="115" y="102" width="9" height="9" fill="#B2BBCD"/>
<rect x="124" y="102" width="9" height="9" fill="#B2BBCD"/>
<rect x="61" y="102" width="9" height="9" fill="#505F74"/>
<rect x="70" y="102" width="9" height="9" fill="#505F74"/>
<rect x="34" y="111" width="9" height="9" fill="#505F74"/>
<rect x="43" y="111" width="9" height="9" fill="#505F74"/>
<rect x="52" y="111" width="9" height="9" fill="#505F74"/>
<rect x="79" y="138" width="9" height="9" fill="#505F74"/>
<rect x="79" y="120" width="9" height="9" fill="#B2BBCD"/>
<rect x="88" y="111" width="9" height="9" fill="#B2BBCD"/>
<rect x="97" y="111" width="9" height="9" fill="#B2BBCD"/>
<rect x="106" y="111" width="9" height="9" fill="#B2BBCD"/>
<rect x="115" y="111" width="9" height="9" fill="#B2BBCD"/>
<rect x="115" y="120" width="9" height="9" fill="#B2BBCD"/>
<rect x="124" y="111" width="9" height="9" fill="#B2BBCD"/>
<rect x="124" y="120" width="9" height="9" fill="#B2BBCD"/>
<rect x="79" y="192" width="9" height="9" fill="#B2BBCD"/>
<rect x="79" y="183" width="9" height="9" fill="#B2BBCD"/>
<rect x="79" y="174" width="9" height="9" fill="#B2BBCD"/>
<rect x="79" y="165" width="9" height="9" fill="#B2BBCD"/>
<rect x="88" y="192" width="9" height="9" fill="#B2BBCD"/>
<rect x="88" y="183" width="9" height="9" fill="#B2BBCD"/>
<rect x="88" y="174" width="9" height="9" fill="#B2BBCD"/>
<rect x="97" y="192" width="9" height="9" fill="#B2BBCD"/>
<rect x="115" y="183" width="9" height="9" fill="#B2BBCD"/>
<rect x="169" y="183" width="9" height="9" fill="#B2BBCD"/>
<rect x="169" y="192" width="9" height="9" fill="#B2BBCD"/>
<rect x="169" y="201" width="9" height="9" fill="#B2BBCD"/>
<rect x="97" y="183" width="9" height="9" fill="#B2BBCD"/>
<rect x="115" y="174" width="9" height="9" fill="#B2BBCD"/>
<rect x="169" y="174" width="9" height="9" fill="#B2BBCD"/>
<rect x="52" y="120" width="9" height="9" fill="#505F74"/>
<rect x="79" y="147" width="9" height="9" fill="#505F74"/>
<rect x="79" y="156" width="9" height="9" fill="#505F74"/>
<rect x="88" y="156" width="9" height="9" fill="#505F74"/>
<rect x="88" y="165" width="9" height="9" fill="#505F74"/>
<rect x="97" y="165" width="9" height="9" fill="#505F74"/>
<rect x="97" y="174" width="9" height="9" fill="#505F74"/>
<rect x="52" y="210" width="9" height="9" fill="#505F74"/>
<rect x="52" y="219" width="9" height="9" fill="#505F74"/>
<rect x="70" y="219" width="9" height="9" fill="#505F74"/>
<rect x="88" y="219" width="9" height="9" fill="#505F74"/>
<rect x="88" y="201" width="9" height="9" fill="#505F74"/>
<rect x="79" y="201" width="9" height="9" fill="#505F74"/>
<rect x="70" y="201" width="9" height="9" fill="#505F74"/>
<rect x="70" y="192" width="9" height="9" fill="#505F74"/>
<rect x="70" y="183" width="9" height="9" fill="#505F74"/>
<rect x="70" y="174" width="9" height="9" fill="#505F74"/>
<rect x="106" y="219" width="9" height="9" fill="#505F74"/>
<rect x="61" y="219" width="9" height="9" fill="#505F74"/>
<rect x="79" y="219" width="9" height="9" fill="#505F74"/>
<rect x="97" y="219" width="9" height="9" fill="#505F74"/>
<rect x="106" y="210" width="9" height="9" fill="#505F74"/>
<rect x="115" y="201" width="9" height="9" fill="#505F74"/>
<rect x="178" y="201" width="9" height="9" fill="#505F74"/>
<rect x="187" y="192" width="9" height="9" fill="#505F74"/>
<rect x="196" y="192" width="9" height="9" fill="#505F74"/>
<rect x="196" y="201" width="9" height="9" fill="#505F74"/>
<rect x="178" y="219" width="9" height="9" fill="#505F74"/>
<rect x="187" y="219" width="9" height="9" fill="#505F74"/>
<rect x="196" y="219" width="9" height="9" fill="#505F74"/>
<rect x="205" y="219" width="9" height="9" fill="#505F74"/>
<rect x="214" y="219" width="9" height="9" fill="#505F74"/>
<rect x="223" y="219" width="9" height="9" fill="#505F74"/>
<rect x="232" y="219" width="9" height="9" fill="#505F74"/>
<rect x="241" y="219" width="9" height="9" fill="#505F74"/>
<rect x="205" y="201" width="9" height="9" fill="#505F74"/>
<rect x="214" y="201" width="9" height="9" fill="#505F74"/>
<rect x="223" y="201" width="9" height="9" fill="#505F74"/>
<rect x="232" y="210" width="9" height="9" fill="#505F74"/>
<rect x="241" y="210" width="9" height="9" fill="#505F74"/>
<rect x="106" y="201" width="9" height="9" fill="#505F74"/>
<rect x="115" y="192" width="9" height="9" fill="#505F74"/>
<rect x="61" y="111" width="9" height="9" fill="#2C4059"/>
<rect x="61" y="120" width="9" height="9" fill="#505F74"/>
<rect x="88" y="120" width="9" height="9" fill="#505F74"/>
<rect x="16" y="75" width="9" height="9" fill="#505F74"/>
<rect x="16" y="84" width="9" height="9" fill="#505F74"/>
<rect x="61" y="21" width="9" height="9" fill="#2C2825"/>
<rect opacity="0.65" x="61" y="30" width="9" height="9" fill="#8896B2"/>
<rect opacity="0.65" x="52" y="39" width="9" height="9" fill="#8896B2"/>
<rect opacity="0.65" x="43" y="48" width="9" height="9" fill="#8896B2"/>
<rect opacity="0.65" x="43" y="57" width="9" height="9" fill="#8896B2"/>
<rect opacity="0.65" x="43" y="66" width="9" height="9" fill="#8896B2"/>
<rect opacity="0.65" x="43" y="75" width="9" height="9" fill="#8896B2"/>
<rect opacity="0.65" x="43" y="84" width="9" height="9" fill="#8896B2"/>
<rect x="70" y="30" width="9" height="9" fill="#C1D2EA"/>
<rect x="232" y="30" width="9" height="9" fill="#C1D2EA"/>
<rect x="241" y="39" width="9" height="9" fill="#C1D2EA"/>
<rect x="250" y="48" width="9" height="9" fill="#C1D2EA"/>
<rect x="250" y="57" width="9" height="9" fill="#C1D2EA"/>
<rect x="250" y="66" width="9" height="9" fill="#C1D2EA"/>
<rect x="241" y="75" width="9" height="9" fill="#C1D2EA"/>
<rect x="61" y="39" width="9" height="9" fill="#C1D2EA"/>
<rect x="52" y="48" width="9" height="9" fill="#C1D2EA"/>
<rect x="52" y="57" width="9" height="9" fill="#C1D2EA"/>
<rect x="88" y="84" width="9" height="9" fill="#C1D2EA"/>
<rect x="97" y="75" width="9" height="9" fill="#C1D2EA"/>
<rect x="106" y="66" width="9" height="9" fill="#C1D2EA"/>
<rect x="124" y="57" width="9" height="9" fill="#C1D2EA"/>
<rect x="115" y="66" width="9" height="9" fill="#C1D2EA"/>
<rect x="133" y="57" width="9" height="9" fill="#C1D2EA"/>
<rect x="142" y="57" width="9" height="9" fill="#C1D2EA"/>
<rect x="160" y="48" width="9" height="9" fill="#C1D2EA"/>
<rect x="52" y="66" width="9" height="9" fill="#C1D2EA"/>
<rect x="88" y="93" width="9" height="9" fill="#C1D2EA"/>
<rect x="52" y="75" width="9" height="9" fill="#B2BBCD"/>
<rect x="97" y="84" width="9" height="9" fill="#B2BBCD"/>
<rect x="97" y="93" width="9" height="9" fill="#B2BBCD"/>
<rect x="106" y="93" width="9" height="9" fill="#B2BBCD"/>
<rect x="106" y="84" width="9" height="9" fill="#B2BBCD"/>
<rect x="115" y="93" width="9" height="9" fill="#B2BBCD"/>
<rect x="115" y="84" width="9" height="9" fill="#B2BBCD"/>
<rect x="115" y="75" width="9" height="9" fill="#B2BBCD"/>
<rect x="124" y="93" width="9" height="9" fill="#B2BBCD"/>
<rect x="124" y="84" width="9" height="9" fill="#B2BBCD"/>
<rect x="124" y="75" width="9" height="9" fill="#B2BBCD"/>
<rect x="124" y="66" width="9" height="9" fill="#B2BBCD"/>
<rect x="133" y="75" width="9" height="9" fill="#B2BBCD"/>
<rect x="151" y="75" width="9" height="9" fill="#B2BBCD"/>
<rect x="142" y="93" width="9" height="9" fill="#B2BBCD"/>
<rect x="169" y="93" width="9" height="9" fill="#B2BBCD"/>
<rect x="178" y="93" width="9" height="9" fill="#B2BBCD"/>
<rect x="187" y="93" width="9" height="9" fill="#B2BBCD"/>
<rect x="196" y="93" width="9" height="9" fill="#B2BBCD"/>
<rect x="205" y="93" width="9" height="9" fill="#B2BBCD"/>
<rect x="232" y="93" width="9" height="9" fill="#B2BBCD"/>
<rect x="250" y="93" width="9" height="9" fill="#B2BBCD"/>
<rect x="205" y="138" width="9" height="9" fill="#B2BBCD"/>
<rect x="142" y="111" width="9" height="9" fill="#B2BBCD"/>
<rect x="142" y="120" width="9" height="9" fill="#B2BBCD"/>
<rect x="169" y="111" width="9" height="9" fill="#B2BBCD"/>
<rect x="178" y="111" width="9" height="9" fill="#B2BBCD"/>
<rect x="187" y="111" width="9" height="9" fill="#B2BBCD"/>
<rect x="196" y="111" width="9" height="9" fill="#B2BBCD"/>
<rect x="205" y="111" width="9" height="9" fill="#B2BBCD"/>
<rect x="205" y="156" width="9" height="9" fill="#B2BBCD"/>
<rect x="196" y="156" width="9" height="9" fill="#B2BBCD"/>
<rect x="196" y="165" width="9" height="9" fill="#B2BBCD"/>
<rect x="187" y="165" width="9" height="9" fill="#B2BBCD"/>
<rect x="187" y="174" width="9" height="9" fill="#B2BBCD"/>
<rect x="196" y="174" width="9" height="9" fill="#B2BBCD"/>
<rect x="205" y="174" width="9" height="9" fill="#505F74"/>
<rect x="187" y="183" width="9" height="9" fill="#B2BBCD"/>
<rect x="196" y="183" width="9" height="9" fill="#B2BBCD"/>
<rect x="205" y="183" width="9" height="9" fill="#505F74"/>
<rect x="205" y="192" width="9" height="9" fill="#505F74"/>
<rect x="196" y="120" width="9" height="9" fill="#B2BBCD"/>
<rect x="205" y="120" width="9" height="9" fill="#B2BBCD"/>
<rect x="205" y="165" width="9" height="9" fill="#B2BBCD"/>
<rect x="133" y="66" width="9" height="9" fill="#B2BBCD"/>
<rect x="151" y="66" width="9" height="9" fill="#B2BBCD"/>
<rect x="142" y="84" width="9" height="9" fill="#B2BBCD"/>
<rect x="169" y="84" width="9" height="9" fill="#B2BBCD"/>
<rect x="178" y="84" width="9" height="9" fill="#B2BBCD"/>
<rect x="178" y="75" width="9" height="9" fill="#B2BBCD"/>
<rect x="187" y="84" width="9" height="9" fill="#B2BBCD"/>
<rect x="187" y="75" width="9" height="9" fill="#B2BBCD"/>
<rect x="196" y="84" width="9" height="9" fill="#B2BBCD"/>
<rect x="205" y="84" width="9" height="9" fill="#B2BBCD"/>
<rect x="241" y="30" width="9" height="9" fill="#B2BBCD"/>
<rect x="250" y="39" width="9" height="9" fill="#B2BBCD"/>
<rect x="259" y="39" width="9" height="9" fill="#B2BBCD"/>
<rect x="259" y="48" width="9" height="9" fill="#B2BBCD"/>
<rect x="268" y="48" width="9" height="9" fill="#B2BBCD"/>
<rect x="259" y="57" width="9" height="9" fill="#B2BBCD"/>
<rect x="268" y="57" width="9" height="9" fill="#B2BBCD"/>
<rect x="259" y="66" width="9" height="9" fill="#B2BBCD"/>
<rect x="268" y="66" width="9" height="9" fill="#B2BBCD"/>
<rect x="277" y="66" width="9" height="9" fill="#B2BBCD"/>
<rect x="259" y="75" width="9" height="9" fill="#B2BBCD"/>
<rect x="268" y="75" width="9" height="9" fill="#B2BBCD"/>
<rect x="277" y="75" width="9" height="9" fill="#B2BBCD"/>
<rect x="250" y="75" width="9" height="9" fill="#B2BBCD"/>
<rect x="232" y="84" width="9" height="9" fill="#B2BBCD"/>
<rect x="250" y="84" width="9" height="9" fill="#B2BBCD"/>
<rect x="205" y="129" width="9" height="9" fill="#B2BBCD"/>
<rect x="142" y="102" width="9" height="9" fill="#B2BBCD"/>
<rect x="169" y="102" width="9" height="9" fill="#B2BBCD"/>
<rect x="178" y="102" width="9" height="9" fill="#B2BBCD"/>
<rect x="187" y="102" width="9" height="9" fill="#B2BBCD"/>
<rect x="196" y="102" width="9" height="9" fill="#B2BBCD"/>
<rect x="205" y="102" width="9" height="9" fill="#B2BBCD"/>
<rect x="241" y="111" width="9" height="9" fill="#B2BBCD"/>
<rect x="250" y="111" width="9" height="9" fill="#B2BBCD"/>
<rect x="259" y="102" width="9" height="9" fill="#B2BBCD"/>
<rect x="241" y="84" width="9" height="9" fill="#B2BBCD"/>
<rect x="259" y="84" width="9" height="9" fill="#B2BBCD"/>
<rect x="268" y="84" width="9" height="9" fill="#B2BBCD"/>
<rect x="241" y="93" width="9" height="9" fill="#B2BBCD"/>
<rect x="259" y="93" width="9" height="9" fill="#B2BBCD"/>
<rect x="268" y="93" width="9" height="9" fill="#B2BBCD"/>
<rect x="205" y="147" width="9" height="9" fill="#B2BBCD"/>
<rect x="106" y="75" width="9" height="9" fill="#B2BBCD"/>
<rect x="160" y="57" width="9" height="9" fill="#B2BBCD"/>
<rect x="70" y="21" width="9" height="9" fill="#2C2825"/>
<rect x="79" y="21" width="9" height="9" fill="#2B2827"/>
<rect x="79" y="30" width="9" height="9" fill="#2C2825"/>
<rect x="70" y="39" width="9" height="9" fill="#2C2825"/>
<rect x="61" y="48" width="9" height="9" fill="#2C2825"/>
<rect x="61" y="57" width="9" height="9" fill="#2C2825"/>
<rect x="61" y="66" width="9" height="9" fill="#2C2825"/>
<rect x="70" y="75" width="9" height="9" fill="#2C2825"/>
<rect x="79" y="75" width="9" height="9" fill="#2C2825"/>
<rect x="88" y="75" width="9" height="9" fill="#2C2825"/>
<rect x="97" y="66" width="9" height="9" fill="#2C2825"/>
<rect x="106" y="57" width="9" height="9" fill="#2C2825"/>
<rect x="115" y="57" width="9" height="9" fill="#2C2825"/>
<rect x="124" y="48" width="9" height="9" fill="#2C2825"/>
<rect x="133" y="48" width="9" height="9" fill="#2C2825"/>
<rect x="142" y="48" width="9" height="9" fill="#2C2825"/>
<rect x="151" y="39" width="9" height="9" fill="#2C2825"/>
<rect x="160" y="39" width="9" height="9" fill="#2C2825"/>
<rect x="169" y="39" width="9" height="9" fill="#2C2825"/>
<rect x="178" y="39" width="9" height="9" fill="#2C2825"/>
<rect x="187" y="39" width="9" height="9" fill="#2C2825"/>
<rect x="196" y="48" width="9" height="9" fill="#2C2825"/>
<rect x="205" y="57" width="9" height="9" fill="#2C2825"/>
<rect x="214" y="66" width="9" height="9" fill="#2C2825"/>
<rect x="223" y="75" width="9" height="9" fill="#2C2825"/>
<rect x="232" y="75" width="9" height="9" fill="#2C2825"/>
<rect x="241" y="66" width="9" height="9" fill="#2C2825"/>
<rect x="241" y="57" width="9" height="9" fill="#2C2825"/>
<rect x="241" y="48" width="9" height="9" fill="#2C2825"/>
<rect x="232" y="39" width="9" height="9" fill="#2C2825"/>
<rect x="223" y="30" width="9" height="9" fill="#2C2825"/>
<rect x="214" y="21" width="9" height="9" fill="#2C2825"/>
<rect x="223" y="21" width="9" height="9" fill="#2C2825"/>
<rect x="232" y="21" width="9" height="9" fill="#2C2825"/>
<rect x="241" y="21" width="9" height="9" fill="#2C2825"/>
<rect x="259" y="30" width="9" height="9" fill="#2C2825"/>
<rect x="250" y="21" width="9" height="9" fill="#2C2825"/>
<rect x="268" y="30" width="9" height="9" fill="#2C2825"/>
<rect x="277" y="39" width="9" height="9" fill="#2C2825"/>
<rect x="286" y="48" width="9" height="9" fill="#2C2825"/>
<rect x="295" y="66" width="9" height="9" fill="#2C2825"/>
<rect x="295" y="84" width="9" height="9" fill="#2C2825"/>
<rect x="286" y="57" width="9" height="9" fill="#2C2825"/>
<rect x="295" y="75" width="9" height="9" fill="#2C2825"/>
<rect x="295" y="93" width="9" height="9" fill="#2C2825"/>
<rect x="88" y="21" width="9" height="9" fill="#2C2825"/>
<rect x="34" y="120" width="9" height="9" fill="#2C2825"/>
<rect x="43" y="120" width="9" height="9" fill="#2C2825"/>
<rect x="52" y="129" width="9" height="9" fill="#2C2825"/>
<rect x="61" y="129" width="9" height="9" fill="#2C2825"/>
<rect x="70" y="138" width="9" height="9" fill="#2C2825"/>
<rect x="142" y="174" width="9" height="9" fill="#2C2825"/>
<rect x="142" y="165" width="9" height="9" fill="#2C2825"/>
<rect x="106" y="147" width="9" height="9" fill="#2C2825"/>
<rect x="133" y="147" width="9" height="9" fill="#2C2825"/>
<rect x="169" y="147" width="9" height="9" fill="#2C2825"/>
<rect x="160" y="147" width="9" height="9" fill="#2C2825"/>
<rect x="169" y="138" width="9" height="9" fill="#2C2825"/>
<rect x="97" y="129" width="9" height="9" fill="#1A1A1A"/>
<rect x="106" y="129" width="9" height="9" fill="#1A1A1A"/>
<rect x="70" y="147" width="9" height="9" fill="#2C2825"/>
<rect x="142" y="183" width="9" height="9" fill="#2C2825"/>
<rect x="97" y="138" width="9" height="9" fill="#1A1A1A"/>
<rect x="70" y="156" width="9" height="9" fill="#2C2825"/>
<rect x="142" y="192" width="9" height="9" fill="#2C2825"/>
<rect x="97" y="147" width="9" height="9" fill="#1A1A1A"/>
<rect x="106" y="156" width="9" height="9" fill="#1A1A1A"/>
<rect x="160" y="156" width="9" height="9" fill="#1A1A1A"/>
<rect x="115" y="156" width="9" height="9" fill="#1A1A1A"/>
<rect x="169" y="156" width="9" height="9" fill="#1A1A1A"/>
<rect x="115" y="138" width="9" height="9" fill="#1A1A1A"/>
<rect x="133" y="138" width="9" height="9" fill="#1A1A1A"/>
<rect x="124" y="156" width="9" height="9" fill="#1A1A1A"/>
<rect x="178" y="156" width="9" height="9" fill="#1A1A1A"/>
<rect x="124" y="138" width="9" height="9" fill="#1A1A1A"/>
<rect x="142" y="138" width="9" height="9" fill="#1A1A1A"/>
<rect x="169" y="129" width="9" height="9" fill="#1A1A1A"/>
<rect x="151" y="138" width="9" height="9" fill="#1A1A1A"/>
<rect x="160" y="138" width="9" height="9" fill="#1A1A1A"/>
<rect x="178" y="129" width="9" height="9" fill="#1A1A1A"/>
<rect x="187" y="129" width="9" height="9" fill="#1A1A1A"/>
<rect x="187" y="138" width="9" height="9" fill="#1A1A1A"/>
<rect x="223" y="165" width="9" height="9" fill="#2C2825"/>
<rect x="232" y="183" width="9" height="9" fill="#1A1A1A"/>
<rect x="232" y="192" width="9" height="9" fill="#1A1A1A"/>
<rect x="241" y="201" width="9" height="9" fill="#1A1A1A"/>
<rect x="250" y="210" width="9" height="9" fill="#1A1A1A"/>
<rect x="250" y="219" width="9" height="9" fill="#1A1A1A"/>
<rect x="223" y="156" width="9" height="9" fill="#2C2825"/>
<rect x="232" y="174" width="9" height="9" fill="#1A1A1A"/>
<rect x="223" y="147" width="9" height="9" fill="#2C2825"/>
<rect x="223" y="138" width="9" height="9" fill="#2C2825"/>
<rect x="232" y="129" width="9" height="9" fill="#2C2825"/>
<rect x="241" y="129" width="9" height="9" fill="#2C2825"/>
<rect x="250" y="129" width="9" height="9" fill="#2C2825"/>
<rect x="259" y="129" width="9" height="9" fill="#2C2825"/>
<rect x="268" y="129" width="9" height="9" fill="#2C2825"/>
<rect x="277" y="120" width="9" height="9" fill="#2C2825"/>
<rect x="286" y="111" width="9" height="9" fill="#2C2825"/>
<rect x="286" y="102" width="9" height="9" fill="#2C2825"/>
<rect x="133" y="165" width="9" height="9" fill="#1A1A1A"/>
<rect x="151" y="165" width="9" height="9" fill="#1A1A1A"/>
<rect x="133" y="174" width="9" height="9" fill="#1A1A1A"/>
<rect x="151" y="174" width="9" height="9" fill="#1A1A1A"/>
<rect x="133" y="183" width="9" height="9" fill="#1A1A1A"/>
<rect x="151" y="183" width="9" height="9" fill="#1A1A1A"/>
<rect x="133" y="192" width="9" height="9" fill="#1A1A1A"/>
<rect x="151" y="192" width="9" height="9" fill="#1A1A1A"/>
<rect x="133" y="201" width="9" height="9" fill="#1A1A1A"/>
<rect x="124" y="210" width="9" height="9" fill="#1A1A1A"/>
<rect x="124" y="219" width="9" height="9" fill="#1A1A1A"/>
<rect x="133" y="219" width="9" height="9" fill="#1A1A1A"/>
<rect x="142" y="219" width="9" height="9" fill="#1A1A1A"/>
<rect x="151" y="219" width="9" height="9" fill="#1A1A1A"/>
<rect x="160" y="219" width="9" height="9" fill="#1A1A1A"/>
<rect x="160" y="210" width="9" height="9" fill="#1A1A1A"/>
<rect x="151" y="201" width="9" height="9" fill="#1A1A1A"/>
<rect x="70" y="165" width="9" height="9" fill="#2C2825"/>
<rect x="142" y="201" width="9" height="9" fill="#2C2825"/>
<rect x="133" y="210" width="9" height="9" fill="#2C2825"/>
<rect x="133" y="156" width="9" height="9" fill="#2C2825"/>
<rect x="115" y="147" width="9" height="9" fill="#2C2825"/>
<rect x="142" y="147" width="9" height="9" fill="#2C2825"/>
<rect x="178" y="147" width="9" height="9" fill="#2C2825"/>
<rect x="178" y="138" width="9" height="9" fill="#2C2825"/>
<rect x="142" y="210" width="9" height="9" fill="#2C2825"/>
<rect x="142" y="156" width="9" height="9" fill="#2C2825"/>
<rect x="124" y="147" width="9" height="9" fill="#2C2825"/>
<rect x="151" y="147" width="9" height="9" fill="#2C2825"/>
<rect x="187" y="147" width="9" height="9" fill="#2C2825"/>
<rect x="106" y="138" width="9" height="9" fill="#2C2825"/>
<rect x="151" y="210" width="9" height="9" fill="#2C2825"/>
<rect x="151" y="156" width="9" height="9" fill="#2C2825"/>
<rect x="61" y="174" width="9" height="9" fill="#2C2825"/>
<rect x="61" y="183" width="9" height="9" fill="#2C2825"/>
<rect x="61" y="192" width="9" height="9" fill="#2C2825"/>
<rect x="52" y="201" width="9" height="9" fill="#2C2825"/>
<rect x="43" y="210" width="9" height="9" fill="#2C2825"/>
<rect x="43" y="219" width="9" height="9" fill="#2C2825"/>
<rect x="43" y="228" width="9" height="9" fill="#2C2825"/>
<rect x="52" y="228" width="9" height="9" fill="#2C2825"/>
<rect x="61" y="228" width="9" height="9" fill="#2C2825"/>
<rect x="70" y="228" width="9" height="9" fill="#2C2825"/>
<rect x="79" y="228" width="9" height="9" fill="#2C2825"/>
<rect x="88" y="228" width="9" height="9" fill="#2C2825"/>
<rect x="97" y="228" width="9" height="9" fill="#2C2825"/>
<rect x="106" y="228" width="9" height="9" fill="#2C2825"/>
<rect x="115" y="228" width="9" height="9" fill="#2C2825"/>
<rect x="169" y="228" width="9" height="9" fill="#2C2825"/>
<rect x="178" y="228" width="9" height="9" fill="#2C2825"/>
<rect x="187" y="228" width="9" height="9" fill="#2C2825"/>
<rect x="196" y="228" width="9" height="9" fill="#2C2825"/>
<rect x="205" y="228" width="9" height="9" fill="#2C2825"/>
<rect x="214" y="228" width="9" height="9" fill="#2C2825"/>
<rect x="223" y="228" width="9" height="9" fill="#2C2825"/>
<rect x="232" y="228" width="9" height="9" fill="#2C2825"/>
<rect x="241" y="228" width="9" height="9" fill="#2C2825"/>
<rect x="250" y="228" width="9" height="9" fill="#2C2825"/>
</g>
<defs>
<filter id="filter0_d_45_194" x="-4" y="0" width="311" height="245" filterUnits="userSpaceOnUse" color-interpolation-filters="sRGB">
<feFlood flood-opacity="0" result="BackgroundImageFix"/>
<feColorMatrix in="SourceAlpha" type="matrix" values="0 0 0 0 0 0 0 0 0 0 0 0 0 0 0 0 0 0 127 0" result="hardAlpha"/>
<feOffset dy="4"/>
<feGaussianBlur stdDeviation="2"/>
<feComposite in2="hardAlpha" operator="out"/>
<feColorMatrix type="matrix" values="0 0 0 0 0 0 0 0 0 0 0 0 0 0 0 0 0 0 0.25 0"/>
<feBlend mode="normal" in2="BackgroundImageFix" result="effect1_dropShadow_45_194"/>
<feBlend mode="normal" in="SourceGraphic" in2="effect1_dropShadow_45_194" result="shape"/>
</filter>
<clipPath id="clip0_45_194">
<rect width="303" height="237" fill="white"/>
</clipPath>
</defs>
</svg>
